ISO-10303-21;
HEADER;
/* Generated by software containing ST-Developer
 * from STEP Tools, Inc. (www.steptools.com) 
 */

FILE_DESCRIPTION(
/* description */ (''),
/* implementation_level */ '2;1');

FILE_NAME(
/* name */ 
'C:/Users/kamilp/Documents/5 inch LCD HDMI RIGHT SIDE v8.step',
/* time_stamp */ '2020-09-28T22:19:28-05:00',
/* author */ (''),
/* organization */ (''),
/* preprocessor_version */ 'ST-DEVELOPER v18.1',
/* originating_system */ 'Autodesk Translation Framework v9.3.0.1241',
/* authorisation */ '');

FILE_SCHEMA (('AUTOMOTIVE_DESIGN { 1 0 10303 214 3 1 1 }'));
ENDSEC;

DATA;
#10=MECHANICAL_DESIGN_GEOMETRIC_PRESENTATION_REPRESENTATION('',(#13,#14,
#15,#16,#17),#1471);
#11=SHAPE_REPRESENTATION_RELATIONSHIP('SRR','None',#1478,#12);
#12=ADVANCED_BREP_SHAPE_REPRESENTATION('',(#18,#19,#20,#21),#1470);
#13=STYLED_ITEM('',(#1488),#18);
#14=STYLED_ITEM('',(#1489),#19);
#15=STYLED_ITEM('',(#1491),#887);
#16=STYLED_ITEM('',(#1490),#20);
#17=STYLED_ITEM('',(#1492),#21);
#18=MANIFOLD_SOLID_BREP('Body2',#900);
#19=MANIFOLD_SOLID_BREP('Body5',#901);
#20=MANIFOLD_SOLID_BREP('Body6',#902);
#21=MANIFOLD_SOLID_BREP('Body8',#903);
#22=FACE_BOUND('',#138,.T.);
#23=FACE_BOUND('',#139,.T.);
#24=FACE_BOUND('',#140,.T.);
#25=FACE_BOUND('',#141,.T.);
#26=FACE_BOUND('',#143,.T.);
#27=FACE_BOUND('',#144,.T.);
#28=FACE_BOUND('',#145,.T.);
#29=FACE_BOUND('',#146,.T.);
#30=FACE_BOUND('',#166,.T.);
#31=PLANE('',#929);
#32=PLANE('',#933);
#33=PLANE('',#934);
#34=PLANE('',#935);
#35=PLANE('',#939);
#36=PLANE('',#943);
#37=PLANE('',#944);
#38=PLANE('',#945);
#39=PLANE('',#949);
#40=PLANE('',#950);
#41=PLANE('',#951);
#42=PLANE('',#952);
#43=PLANE('',#953);
#44=PLANE('',#954);
#45=PLANE('',#955);
#46=PLANE('',#956);
#47=PLANE('',#957);
#48=PLANE('',#958);
#49=PLANE('',#959);
#50=PLANE('',#960);
#51=PLANE('',#961);
#52=PLANE('',#962);
#53=PLANE('',#963);
#54=PLANE('',#964);
#55=PLANE('',#965);
#56=PLANE('',#966);
#57=PLANE('',#967);
#58=PLANE('',#968);
#59=PLANE('',#969);
#60=PLANE('',#970);
#61=PLANE('',#971);
#62=PLANE('',#972);
#63=PLANE('',#973);
#64=PLANE('',#974);
#65=PLANE('',#975);
#66=PLANE('',#976);
#67=PLANE('',#977);
#68=PLANE('',#978);
#69=PLANE('',#979);
#70=PLANE('',#980);
#71=PLANE('',#981);
#72=FACE_OUTER_BOUND('',#121,.T.);
#73=FACE_OUTER_BOUND('',#122,.T.);
#74=FACE_OUTER_BOUND('',#123,.T.);
#75=FACE_OUTER_BOUND('',#124,.T.);
#76=FACE_OUTER_BOUND('',#125,.T.);
#77=FACE_OUTER_BOUND('',#126,.T.);
#78=FACE_OUTER_BOUND('',#127,.T.);
#79=FACE_OUTER_BOUND('',#128,.T.);
#80=FACE_OUTER_BOUND('',#129,.T.);
#81=FACE_OUTER_BOUND('',#130,.T.);
#82=FACE_OUTER_BOUND('',#131,.T.);
#83=FACE_OUTER_BOUND('',#132,.T.);
#84=FACE_OUTER_BOUND('',#133,.T.);
#85=FACE_OUTER_BOUND('',#134,.T.);
#86=FACE_OUTER_BOUND('',#135,.T.);
#87=FACE_OUTER_BOUND('',#136,.T.);
#88=FACE_OUTER_BOUND('',#137,.T.);
#89=FACE_OUTER_BOUND('',#142,.T.);
#90=FACE_OUTER_BOUND('',#147,.T.);
#91=FACE_OUTER_BOUND('',#148,.T.);
#92=FACE_OUTER_BOUND('',#149,.T.);
#93=FACE_OUTER_BOUND('',#150,.T.);
#94=FACE_OUTER_BOUND('',#151,.T.);
#95=FACE_OUTER_BOUND('',#152,.T.);
#96=FACE_OUTER_BOUND('',#153,.T.);
#97=FACE_OUTER_BOUND('',#154,.T.);
#98=FACE_OUTER_BOUND('',#155,.T.);
#99=FACE_OUTER_BOUND('',#156,.T.);
#100=FACE_OUTER_BOUND('',#157,.T.);
#101=FACE_OUTER_BOUND('',#158,.T.);
#102=FACE_OUTER_BOUND('',#159,.T.);
#103=FACE_OUTER_BOUND('',#160,.T.);
#104=FACE_OUTER_BOUND('',#161,.T.);
#105=FACE_OUTER_BOUND('',#162,.T.);
#106=FACE_OUTER_BOUND('',#163,.T.);
#107=FACE_OUTER_BOUND('',#164,.T.);
#108=FACE_OUTER_BOUND('',#165,.T.);
#109=FACE_OUTER_BOUND('',#167,.T.);
#110=FACE_OUTER_BOUND('',#168,.T.);
#111=FACE_OUTER_BOUND('',#169,.T.);
#112=FACE_OUTER_BOUND('',#170,.T.);
#113=FACE_OUTER_BOUND('',#171,.T.);
#114=FACE_OUTER_BOUND('',#172,.T.);
#115=FACE_OUTER_BOUND('',#173,.T.);
#116=FACE_OUTER_BOUND('',#174,.T.);
#117=FACE_OUTER_BOUND('',#175,.T.);
#118=FACE_OUTER_BOUND('',#176,.T.);
#119=FACE_OUTER_BOUND('',#177,.T.);
#120=FACE_OUTER_BOUND('',#178,.T.);
#121=EDGE_LOOP('',(#603,#604,#605,#606));
#122=EDGE_LOOP('',(#607,#608,#609,#610));
#123=EDGE_LOOP('',(#611,#612,#613,#614));
#124=EDGE_LOOP('',(#615,#616,#617,#618));
#125=EDGE_LOOP('',(#619,#620,#621,#622));
#126=EDGE_LOOP('',(#623,#624,#625,#626));
#127=EDGE_LOOP('',(#627,#628,#629,#630));
#128=EDGE_LOOP('',(#631,#632,#633,#634));
#129=EDGE_LOOP('',(#635,#636,#637,#638));
#130=EDGE_LOOP('',(#639,#640,#641,#642));
#131=EDGE_LOOP('',(#643,#644,#645,#646));
#132=EDGE_LOOP('',(#647,#648,#649,#650));
#133=EDGE_LOOP('',(#651,#652,#653,#654));
#134=EDGE_LOOP('',(#655,#656,#657,#658));
#135=EDGE_LOOP('',(#659,#660,#661,#662));
#136=EDGE_LOOP('',(#663,#664,#665,#666));
#137=EDGE_LOOP('',(#667,#668,#669,#670,#671,#672,#673,#674,#675,#676,#677,
#678));
#138=EDGE_LOOP('',(#679));
#139=EDGE_LOOP('',(#680));
#140=EDGE_LOOP('',(#681));
#141=EDGE_LOOP('',(#682));
#142=EDGE_LOOP('',(#683,#684,#685,#686,#687,#688,#689,#690,#691,#692,#693,
#694));
#143=EDGE_LOOP('',(#695));
#144=EDGE_LOOP('',(#696));
#145=EDGE_LOOP('',(#697));
#146=EDGE_LOOP('',(#698));
#147=EDGE_LOOP('',(#699,#700,#701,#702));
#148=EDGE_LOOP('',(#703,#704,#705,#706));
#149=EDGE_LOOP('',(#707,#708,#709,#710));
#150=EDGE_LOOP('',(#711,#712,#713,#714));
#151=EDGE_LOOP('',(#715,#716,#717,#718));
#152=EDGE_LOOP('',(#719,#720,#721,#722));
#153=EDGE_LOOP('',(#723,#724,#725,#726));
#154=EDGE_LOOP('',(#727,#728,#729,#730));
#155=EDGE_LOOP('',(#731,#732,#733,#734));
#156=EDGE_LOOP('',(#735,#736,#737,#738));
#157=EDGE_LOOP('',(#739,#740,#741,#742));
#158=EDGE_LOOP('',(#743,#744,#745,#746));
#159=EDGE_LOOP('',(#747,#748,#749,#750,#751,#752,#753,#754,#755,#756,#757,
#758));
#160=EDGE_LOOP('',(#759,#760,#761,#762,#763,#764,#765,#766,#767,#768,#769,
#770));
#161=EDGE_LOOP('',(#771,#772,#773,#774));
#162=EDGE_LOOP('',(#775,#776,#777,#778));
#163=EDGE_LOOP('',(#779,#780,#781,#782));
#164=EDGE_LOOP('',(#783,#784,#785,#786));
#165=EDGE_LOOP('',(#787,#788,#789,#790));
#166=EDGE_LOOP('',(#791,#792,#793,#794));
#167=EDGE_LOOP('',(#795,#796,#797,#798));
#168=EDGE_LOOP('',(#799,#800,#801,#802));
#169=EDGE_LOOP('',(#803,#804,#805,#806));
#170=EDGE_LOOP('',(#807,#808,#809,#810));
#171=EDGE_LOOP('',(#811,#812,#813,#814));
#172=EDGE_LOOP('',(#815,#816,#817,#818));
#173=EDGE_LOOP('',(#819,#820,#821,#822));
#174=EDGE_LOOP('',(#823,#824,#825,#826));
#175=EDGE_LOOP('',(#827,#828,#829,#830));
#176=EDGE_LOOP('',(#831,#832,#833,#834));
#177=EDGE_LOOP('',(#835,#836,#837,#838));
#178=EDGE_LOOP('',(#839,#840,#841,#842));
#179=LINE('',#1223,#283);
#180=LINE('',#1229,#284);
#181=LINE('',#1235,#285);
#182=LINE('',#1241,#286);
#183=LINE('',#1246,#287);
#184=LINE('',#1248,#288);
#185=LINE('',#1250,#289);
#186=LINE('',#1251,#290);
#187=LINE('',#1257,#291);
#188=LINE('',#1260,#292);
#189=LINE('',#1262,#293);
#190=LINE('',#1263,#294);
#191=LINE('',#1266,#295);
#192=LINE('',#1268,#296);
#193=LINE('',#1269,#297);
#194=LINE('',#1272,#298);
#195=LINE('',#1274,#299);
#196=LINE('',#1275,#300);
#197=LINE('',#1281,#301);
#198=LINE('',#1284,#302);
#199=LINE('',#1286,#303);
#200=LINE('',#1287,#304);
#201=LINE('',#1293,#305);
#202=LINE('',#1296,#306);
#203=LINE('',#1298,#307);
#204=LINE('',#1299,#308);
#205=LINE('',#1302,#309);
#206=LINE('',#1304,#310);
#207=LINE('',#1305,#311);
#208=LINE('',#1308,#312);
#209=LINE('',#1310,#313);
#210=LINE('',#1311,#314);
#211=LINE('',#1320,#315);
#212=LINE('',#1322,#316);
#213=LINE('',#1324,#317);
#214=LINE('',#1325,#318);
#215=LINE('',#1328,#319);
#216=LINE('',#1330,#320);
#217=LINE('',#1331,#321);
#218=LINE('',#1334,#322);
#219=LINE('',#1336,#323);
#220=LINE('',#1337,#324);
#221=LINE('',#1340,#325);
#222=LINE('',#1342,#326);
#223=LINE('',#1343,#327);
#224=LINE('',#1346,#328);
#225=LINE('',#1348,#329);
#226=LINE('',#1349,#330);
#227=LINE('',#1352,#331);
#228=LINE('',#1354,#332);
#229=LINE('',#1355,#333);
#230=LINE('',#1358,#334);
#231=LINE('',#1360,#335);
#232=LINE('',#1361,#336);
#233=LINE('',#1364,#337);
#234=LINE('',#1366,#338);
#235=LINE('',#1367,#339);
#236=LINE('',#1370,#340);
#237=LINE('',#1372,#341);
#238=LINE('',#1373,#342);
#239=LINE('',#1376,#343);
#240=LINE('',#1378,#344);
#241=LINE('',#1379,#345);
#242=LINE('',#1382,#346);
#243=LINE('',#1384,#347);
#244=LINE('',#1385,#348);
#245=LINE('',#1387,#349);
#246=LINE('',#1388,#350);
#247=LINE('',#1394,#351);
#248=LINE('',#1396,#352);
#249=LINE('',#1398,#353);
#250=LINE('',#1399,#354);
#251=LINE('',#1402,#355);
#252=LINE('',#1404,#356);
#253=LINE('',#1405,#357);
#254=LINE('',#1408,#358);
#255=LINE('',#1410,#359);
#256=LINE('',#1411,#360);
#257=LINE('',#1413,#361);
#258=LINE('',#1414,#362);
#259=LINE('',#1418,#363);
#260=LINE('',#1420,#364);
#261=LINE('',#1422,#365);
#262=LINE('',#1423,#366);
#263=LINE('',#1427,#367);
#264=LINE('',#1428,#368);
#265=LINE('',#1429,#369);
#266=LINE('',#1432,#370);
#267=LINE('',#1433,#371);
#268=LINE('',#1436,#372);
#269=LINE('',#1437,#373);
#270=LINE('',#1439,#374);
#271=LINE('',#1445,#375);
#272=LINE('',#1447,#376);
#273=LINE('',#1449,#377);
#274=LINE('',#1450,#378);
#275=LINE('',#1453,#379);
#276=LINE('',#1455,#380);
#277=LINE('',#1456,#381);
#278=LINE('',#1459,#382);
#279=LINE('',#1461,#383);
#280=LINE('',#1462,#384);
#281=LINE('',#1464,#385);
#282=LINE('',#1465,#386);
#283=VECTOR('',#988,1.5);
#284=VECTOR('',#995,1.5);
#285=VECTOR('',#1002,1.5);
#286=VECTOR('',#1009,1.5);
#287=VECTOR('',#1014,10.);
#288=VECTOR('',#1015,10.);
#289=VECTOR('',#1016,10.);
#290=VECTOR('',#1017,10.);
#291=VECTOR('',#1024,10.);
#292=VECTOR('',#1027,10.);
#293=VECTOR('',#1028,10.);
#294=VECTOR('',#1029,10.);
#295=VECTOR('',#1032,10.);
#296=VECTOR('',#1033,10.);
#297=VECTOR('',#1034,10.);
#298=VECTOR('',#1037,10.);
#299=VECTOR('',#1038,10.);
#300=VECTOR('',#1039,10.);
#301=VECTOR('',#1046,10.);
#302=VECTOR('',#1049,10.);
#303=VECTOR('',#1050,10.);
#304=VECTOR('',#1051,10.);
#305=VECTOR('',#1058,10.);
#306=VECTOR('',#1061,10.);
#307=VECTOR('',#1062,10.);
#308=VECTOR('',#1063,10.);
#309=VECTOR('',#1066,10.);
#310=VECTOR('',#1067,10.);
#311=VECTOR('',#1068,10.);
#312=VECTOR('',#1071,10.);
#313=VECTOR('',#1072,10.);
#314=VECTOR('',#1073,10.);
#315=VECTOR('',#1086,10.);
#316=VECTOR('',#1087,10.);
#317=VECTOR('',#1088,10.);
#318=VECTOR('',#1089,10.);
#319=VECTOR('',#1092,10.);
#320=VECTOR('',#1093,10.);
#321=VECTOR('',#1094,10.);
#322=VECTOR('',#1097,10.);
#323=VECTOR('',#1098,10.);
#324=VECTOR('',#1099,10.);
#325=VECTOR('',#1102,10.);
#326=VECTOR('',#1103,10.);
#327=VECTOR('',#1104,10.);
#328=VECTOR('',#1107,10.);
#329=VECTOR('',#1108,10.);
#330=VECTOR('',#1109,10.);
#331=VECTOR('',#1112,10.);
#332=VECTOR('',#1113,10.);
#333=VECTOR('',#1114,10.);
#334=VECTOR('',#1117,10.);
#335=VECTOR('',#1118,10.);
#336=VECTOR('',#1119,10.);
#337=VECTOR('',#1122,10.);
#338=VECTOR('',#1123,10.);
#339=VECTOR('',#1124,10.);
#340=VECTOR('',#1127,10.);
#341=VECTOR('',#1128,10.);
#342=VECTOR('',#1129,10.);
#343=VECTOR('',#1132,10.);
#344=VECTOR('',#1133,10.);
#345=VECTOR('',#1134,10.);
#346=VECTOR('',#1137,10.);
#347=VECTOR('',#1138,10.);
#348=VECTOR('',#1139,10.);
#349=VECTOR('',#1142,10.);
#350=VECTOR('',#1143,10.);
#351=VECTOR('',#1150,10.);
#352=VECTOR('',#1151,10.);
#353=VECTOR('',#1152,10.);
#354=VECTOR('',#1153,10.);
#355=VECTOR('',#1156,10.);
#356=VECTOR('',#1157,10.);
#357=VECTOR('',#1158,10.);
#358=VECTOR('',#1161,10.);
#359=VECTOR('',#1162,10.);
#360=VECTOR('',#1163,10.);
#361=VECTOR('',#1166,10.);
#362=VECTOR('',#1167,10.);
#363=VECTOR('',#1170,10.);
#364=VECTOR('',#1171,10.);
#365=VECTOR('',#1172,10.);
#366=VECTOR('',#1173,10.);
#367=VECTOR('',#1176,10.);
#368=VECTOR('',#1177,10.);
#369=VECTOR('',#1178,10.);
#370=VECTOR('',#1181,10.);
#371=VECTOR('',#1182,10.);
#372=VECTOR('',#1185,10.);
#373=VECTOR('',#1186,10.);
#374=VECTOR('',#1189,10.);
#375=VECTOR('',#1196,10.);
#376=VECTOR('',#1197,10.);
#377=VECTOR('',#1198,10.);
#378=VECTOR('',#1199,10.);
#379=VECTOR('',#1202,10.);
#380=VECTOR('',#1203,10.);
#381=VECTOR('',#1204,10.);
#382=VECTOR('',#1207,10.);
#383=VECTOR('',#1208,10.);
#384=VECTOR('',#1209,10.);
#385=VECTOR('',#1212,10.);
#386=VECTOR('',#1213,10.);
#387=CIRCLE('',#918,1.5);
#388=CIRCLE('',#919,1.5);
#389=CIRCLE('',#921,1.5);
#390=CIRCLE('',#922,1.5);
#391=CIRCLE('',#924,1.5);
#392=CIRCLE('',#925,1.5);
#393=CIRCLE('',#927,1.5);
#394=CIRCLE('',#928,1.5);
#395=CIRCLE('',#931,4.);
#396=CIRCLE('',#932,4.);
#397=CIRCLE('',#937,3.99999999999999);
#398=CIRCLE('',#938,3.99999999999999);
#399=CIRCLE('',#941,4.00000000000026);
#400=CIRCLE('',#942,4.00000000000026);
#401=CIRCLE('',#947,3.99999999999728);
#402=CIRCLE('',#948,3.99999999999728);
#403=VERTEX_POINT('',#1220);
#404=VERTEX_POINT('',#1222);
#405=VERTEX_POINT('',#1226);
#406=VERTEX_POINT('',#1228);
#407=VERTEX_POINT('',#1232);
#408=VERTEX_POINT('',#1234);
#409=VERTEX_POINT('',#1238);
#410=VERTEX_POINT('',#1240);
#411=VERTEX_POINT('',#1244);
#412=VERTEX_POINT('',#1245);
#413=VERTEX_POINT('',#1247);
#414=VERTEX_POINT('',#1249);
#415=VERTEX_POINT('',#1253);
#416=VERTEX_POINT('',#1255);
#417=VERTEX_POINT('',#1259);
#418=VERTEX_POINT('',#1261);
#419=VERTEX_POINT('',#1265);
#420=VERTEX_POINT('',#1267);
#421=VERTEX_POINT('',#1271);
#422=VERTEX_POINT('',#1273);
#423=VERTEX_POINT('',#1277);
#424=VERTEX_POINT('',#1279);
#425=VERTEX_POINT('',#1283);
#426=VERTEX_POINT('',#1285);
#427=VERTEX_POINT('',#1289);
#428=VERTEX_POINT('',#1291);
#429=VERTEX_POINT('',#1295);
#430=VERTEX_POINT('',#1297);
#431=VERTEX_POINT('',#1301);
#432=VERTEX_POINT('',#1303);
#433=VERTEX_POINT('',#1307);
#434=VERTEX_POINT('',#1309);
#435=VERTEX_POINT('',#1318);
#436=VERTEX_POINT('',#1319);
#437=VERTEX_POINT('',#1321);
#438=VERTEX_POINT('',#1323);
#439=VERTEX_POINT('',#1327);
#440=VERTEX_POINT('',#1329);
#441=VERTEX_POINT('',#1333);
#442=VERTEX_POINT('',#1335);
#443=VERTEX_POINT('',#1339);
#444=VERTEX_POINT('',#1341);
#445=VERTEX_POINT('',#1345);
#446=VERTEX_POINT('',#1347);
#447=VERTEX_POINT('',#1351);
#448=VERTEX_POINT('',#1353);
#449=VERTEX_POINT('',#1357);
#450=VERTEX_POINT('',#1359);
#451=VERTEX_POINT('',#1363);
#452=VERTEX_POINT('',#1365);
#453=VERTEX_POINT('',#1369);
#454=VERTEX_POINT('',#1371);
#455=VERTEX_POINT('',#1375);
#456=VERTEX_POINT('',#1377);
#457=VERTEX_POINT('',#1381);
#458=VERTEX_POINT('',#1383);
#459=VERTEX_POINT('',#1392);
#460=VERTEX_POINT('',#1393);
#461=VERTEX_POINT('',#1395);
#462=VERTEX_POINT('',#1397);
#463=VERTEX_POINT('',#1401);
#464=VERTEX_POINT('',#1403);
#465=VERTEX_POINT('',#1407);
#466=VERTEX_POINT('',#1409);
#467=VERTEX_POINT('',#1416);
#468=VERTEX_POINT('',#1417);
#469=VERTEX_POINT('',#1419);
#470=VERTEX_POINT('',#1421);
#471=VERTEX_POINT('',#1425);
#472=VERTEX_POINT('',#1426);
#473=VERTEX_POINT('',#1431);
#474=VERTEX_POINT('',#1435);
#475=VERTEX_POINT('',#1443);
#476=VERTEX_POINT('',#1444);
#477=VERTEX_POINT('',#1446);
#478=VERTEX_POINT('',#1448);
#479=VERTEX_POINT('',#1452);
#480=VERTEX_POINT('',#1454);
#481=VERTEX_POINT('',#1458);
#482=VERTEX_POINT('',#1460);
#483=EDGE_CURVE('',#403,#403,#387,.T.);
#484=EDGE_CURVE('',#403,#404,#179,.T.);
#485=EDGE_CURVE('',#404,#404,#388,.T.);
#486=EDGE_CURVE('',#405,#405,#389,.T.);
#487=EDGE_CURVE('',#405,#406,#180,.T.);
#488=EDGE_CURVE('',#406,#406,#390,.T.);
#489=EDGE_CURVE('',#407,#407,#391,.T.);
#490=EDGE_CURVE('',#407,#408,#181,.T.);
#491=EDGE_CURVE('',#408,#408,#392,.T.);
#492=EDGE_CURVE('',#409,#409,#393,.T.);
#493=EDGE_CURVE('',#409,#410,#182,.T.);
#494=EDGE_CURVE('',#410,#410,#394,.T.);
#495=EDGE_CURVE('',#411,#412,#183,.T.);
#496=EDGE_CURVE('',#411,#413,#184,.T.);
#497=EDGE_CURVE('',#414,#413,#185,.T.);
#498=EDGE_CURVE('',#412,#414,#186,.T.);
#499=EDGE_CURVE('',#415,#412,#395,.T.);
#500=EDGE_CURVE('',#416,#414,#396,.T.);
#501=EDGE_CURVE('',#415,#416,#187,.T.);
#502=EDGE_CURVE('',#415,#417,#188,.T.);
#503=EDGE_CURVE('',#418,#416,#189,.T.);
#504=EDGE_CURVE('',#417,#418,#190,.T.);
#505=EDGE_CURVE('',#417,#419,#191,.T.);
#506=EDGE_CURVE('',#420,#418,#192,.T.);
#507=EDGE_CURVE('',#419,#420,#193,.T.);
#508=EDGE_CURVE('',#421,#419,#194,.T.);
#509=EDGE_CURVE('',#422,#420,#195,.T.);
#510=EDGE_CURVE('',#421,#422,#196,.T.);
#511=EDGE_CURVE('',#423,#421,#397,.T.);
#512=EDGE_CURVE('',#424,#422,#398,.T.);
#513=EDGE_CURVE('',#423,#424,#197,.T.);
#514=EDGE_CURVE('',#423,#425,#198,.T.);
#515=EDGE_CURVE('',#426,#424,#199,.T.);
#516=EDGE_CURVE('',#425,#426,#200,.T.);
#517=EDGE_CURVE('',#427,#425,#399,.T.);
#518=EDGE_CURVE('',#428,#426,#400,.T.);
#519=EDGE_CURVE('',#427,#428,#201,.T.);
#520=EDGE_CURVE('',#427,#429,#202,.T.);
#521=EDGE_CURVE('',#430,#428,#203,.T.);
#522=EDGE_CURVE('',#429,#430,#204,.T.);
#523=EDGE_CURVE('',#429,#431,#205,.T.);
#524=EDGE_CURVE('',#432,#430,#206,.T.);
#525=EDGE_CURVE('',#431,#432,#207,.T.);
#526=EDGE_CURVE('',#433,#431,#208,.T.);
#527=EDGE_CURVE('',#434,#432,#209,.T.);
#528=EDGE_CURVE('',#433,#434,#210,.T.);
#529=EDGE_CURVE('',#411,#433,#401,.T.);
#530=EDGE_CURVE('',#413,#434,#402,.T.);
#531=EDGE_CURVE('',#435,#436,#211,.T.);
#532=EDGE_CURVE('',#435,#437,#212,.T.);
#533=EDGE_CURVE('',#438,#437,#213,.T.);
#534=EDGE_CURVE('',#436,#438,#214,.T.);
#535=EDGE_CURVE('',#436,#439,#215,.T.);
#536=EDGE_CURVE('',#440,#438,#216,.T.);
#537=EDGE_CURVE('',#439,#440,#217,.T.);
#538=EDGE_CURVE('',#439,#441,#218,.T.);
#539=EDGE_CURVE('',#442,#440,#219,.T.);
#540=EDGE_CURVE('',#441,#442,#220,.T.);
#541=EDGE_CURVE('',#441,#443,#221,.T.);
#542=EDGE_CURVE('',#444,#442,#222,.T.);
#543=EDGE_CURVE('',#443,#444,#223,.T.);
#544=EDGE_CURVE('',#443,#445,#224,.T.);
#545=EDGE_CURVE('',#446,#444,#225,.T.);
#546=EDGE_CURVE('',#445,#446,#226,.T.);
#547=EDGE_CURVE('',#445,#447,#227,.T.);
#548=EDGE_CURVE('',#448,#446,#228,.T.);
#549=EDGE_CURVE('',#447,#448,#229,.T.);
#550=EDGE_CURVE('',#447,#449,#230,.T.);
#551=EDGE_CURVE('',#450,#448,#231,.T.);
#552=EDGE_CURVE('',#449,#450,#232,.T.);
#553=EDGE_CURVE('',#451,#449,#233,.T.);
#554=EDGE_CURVE('',#452,#450,#234,.T.);
#555=EDGE_CURVE('',#451,#452,#235,.T.);
#556=EDGE_CURVE('',#453,#451,#236,.T.);
#557=EDGE_CURVE('',#454,#452,#237,.T.);
#558=EDGE_CURVE('',#453,#454,#238,.T.);
#559=EDGE_CURVE('',#455,#453,#239,.T.);
#560=EDGE_CURVE('',#456,#454,#240,.T.);
#561=EDGE_CURVE('',#455,#456,#241,.T.);
#562=EDGE_CURVE('',#457,#455,#242,.T.);
#563=EDGE_CURVE('',#458,#456,#243,.T.);
#564=EDGE_CURVE('',#457,#458,#244,.T.);
#565=EDGE_CURVE('',#435,#457,#245,.T.);
#566=EDGE_CURVE('',#437,#458,#246,.T.);
#567=EDGE_CURVE('',#459,#460,#247,.T.);
#568=EDGE_CURVE('',#459,#461,#248,.T.);
#569=EDGE_CURVE('',#462,#461,#249,.T.);
#570=EDGE_CURVE('',#460,#462,#250,.T.);
#571=EDGE_CURVE('',#460,#463,#251,.T.);
#572=EDGE_CURVE('',#464,#462,#252,.T.);
#573=EDGE_CURVE('',#463,#464,#253,.T.);
#574=EDGE_CURVE('',#463,#465,#254,.T.);
#575=EDGE_CURVE('',#466,#464,#255,.T.);
#576=EDGE_CURVE('',#465,#466,#256,.T.);
#577=EDGE_CURVE('',#465,#459,#257,.T.);
#578=EDGE_CURVE('',#461,#466,#258,.T.);
#579=EDGE_CURVE('',#467,#468,#259,.T.);
#580=EDGE_CURVE('',#468,#469,#260,.T.);
#581=EDGE_CURVE('',#469,#470,#261,.T.);
#582=EDGE_CURVE('',#470,#467,#262,.T.);
#583=EDGE_CURVE('',#471,#472,#263,.T.);
#584=EDGE_CURVE('',#471,#470,#264,.T.);
#585=EDGE_CURVE('',#472,#469,#265,.T.);
#586=EDGE_CURVE('',#472,#473,#266,.T.);
#587=EDGE_CURVE('',#473,#468,#267,.T.);
#588=EDGE_CURVE('',#473,#474,#268,.T.);
#589=EDGE_CURVE('',#474,#467,#269,.T.);
#590=EDGE_CURVE('',#474,#471,#270,.T.);
#591=EDGE_CURVE('',#475,#476,#271,.T.);
#592=EDGE_CURVE('',#475,#477,#272,.T.);
#593=EDGE_CURVE('',#478,#477,#273,.T.);
#594=EDGE_CURVE('',#476,#478,#274,.T.);
#595=EDGE_CURVE('',#476,#479,#275,.T.);
#596=EDGE_CURVE('',#480,#478,#276,.T.);
#597=EDGE_CURVE('',#479,#480,#277,.T.);
#598=EDGE_CURVE('',#479,#481,#278,.T.);
#599=EDGE_CURVE('',#482,#480,#279,.T.);
#600=EDGE_CURVE('',#481,#482,#280,.T.);
#601=EDGE_CURVE('',#481,#475,#281,.T.);
#602=EDGE_CURVE('',#477,#482,#282,.T.);
#603=ORIENTED_EDGE('',*,*,#483,.F.);
#604=ORIENTED_EDGE('',*,*,#484,.T.);
#605=ORIENTED_EDGE('',*,*,#485,.T.);
#606=ORIENTED_EDGE('',*,*,#484,.F.);
#607=ORIENTED_EDGE('',*,*,#486,.F.);
#608=ORIENTED_EDGE('',*,*,#487,.T.);
#609=ORIENTED_EDGE('',*,*,#488,.T.);
#610=ORIENTED_EDGE('',*,*,#487,.F.);
#611=ORIENTED_EDGE('',*,*,#489,.F.);
#612=ORIENTED_EDGE('',*,*,#490,.T.);
#613=ORIENTED_EDGE('',*,*,#491,.T.);
#614=ORIENTED_EDGE('',*,*,#490,.F.);
#615=ORIENTED_EDGE('',*,*,#492,.F.);
#616=ORIENTED_EDGE('',*,*,#493,.T.);
#617=ORIENTED_EDGE('',*,*,#494,.T.);
#618=ORIENTED_EDGE('',*,*,#493,.F.);
#619=ORIENTED_EDGE('',*,*,#495,.F.);
#620=ORIENTED_EDGE('',*,*,#496,.T.);
#621=ORIENTED_EDGE('',*,*,#497,.F.);
#622=ORIENTED_EDGE('',*,*,#498,.F.);
#623=ORIENTED_EDGE('',*,*,#499,.T.);
#624=ORIENTED_EDGE('',*,*,#498,.T.);
#625=ORIENTED_EDGE('',*,*,#500,.F.);
#626=ORIENTED_EDGE('',*,*,#501,.F.);
#627=ORIENTED_EDGE('',*,*,#502,.F.);
#628=ORIENTED_EDGE('',*,*,#501,.T.);
#629=ORIENTED_EDGE('',*,*,#503,.F.);
#630=ORIENTED_EDGE('',*,*,#504,.F.);
#631=ORIENTED_EDGE('',*,*,#505,.F.);
#632=ORIENTED_EDGE('',*,*,#504,.T.);
#633=ORIENTED_EDGE('',*,*,#506,.F.);
#634=ORIENTED_EDGE('',*,*,#507,.F.);
#635=ORIENTED_EDGE('',*,*,#508,.T.);
#636=ORIENTED_EDGE('',*,*,#507,.T.);
#637=ORIENTED_EDGE('',*,*,#509,.F.);
#638=ORIENTED_EDGE('',*,*,#510,.F.);
#639=ORIENTED_EDGE('',*,*,#511,.T.);
#640=ORIENTED_EDGE('',*,*,#510,.T.);
#641=ORIENTED_EDGE('',*,*,#512,.F.);
#642=ORIENTED_EDGE('',*,*,#513,.F.);
#643=ORIENTED_EDGE('',*,*,#514,.F.);
#644=ORIENTED_EDGE('',*,*,#513,.T.);
#645=ORIENTED_EDGE('',*,*,#515,.F.);
#646=ORIENTED_EDGE('',*,*,#516,.F.);
#647=ORIENTED_EDGE('',*,*,#517,.T.);
#648=ORIENTED_EDGE('',*,*,#516,.T.);
#649=ORIENTED_EDGE('',*,*,#518,.F.);
#650=ORIENTED_EDGE('',*,*,#519,.F.);
#651=ORIENTED_EDGE('',*,*,#520,.F.);
#652=ORIENTED_EDGE('',*,*,#519,.T.);
#653=ORIENTED_EDGE('',*,*,#521,.F.);
#654=ORIENTED_EDGE('',*,*,#522,.F.);
#655=ORIENTED_EDGE('',*,*,#523,.F.);
#656=ORIENTED_EDGE('',*,*,#522,.T.);
#657=ORIENTED_EDGE('',*,*,#524,.F.);
#658=ORIENTED_EDGE('',*,*,#525,.F.);
#659=ORIENTED_EDGE('',*,*,#526,.T.);
#660=ORIENTED_EDGE('',*,*,#525,.T.);
#661=ORIENTED_EDGE('',*,*,#527,.F.);
#662=ORIENTED_EDGE('',*,*,#528,.F.);
#663=ORIENTED_EDGE('',*,*,#529,.T.);
#664=ORIENTED_EDGE('',*,*,#528,.T.);
#665=ORIENTED_EDGE('',*,*,#530,.F.);
#666=ORIENTED_EDGE('',*,*,#496,.F.);
#667=ORIENTED_EDGE('',*,*,#530,.T.);
#668=ORIENTED_EDGE('',*,*,#527,.T.);
#669=ORIENTED_EDGE('',*,*,#524,.T.);
#670=ORIENTED_EDGE('',*,*,#521,.T.);
#671=ORIENTED_EDGE('',*,*,#518,.T.);
#672=ORIENTED_EDGE('',*,*,#515,.T.);
#673=ORIENTED_EDGE('',*,*,#512,.T.);
#674=ORIENTED_EDGE('',*,*,#509,.T.);
#675=ORIENTED_EDGE('',*,*,#506,.T.);
#676=ORIENTED_EDGE('',*,*,#503,.T.);
#677=ORIENTED_EDGE('',*,*,#500,.T.);
#678=ORIENTED_EDGE('',*,*,#497,.T.);
#679=ORIENTED_EDGE('',*,*,#492,.T.);
#680=ORIENTED_EDGE('',*,*,#489,.T.);
#681=ORIENTED_EDGE('',*,*,#486,.T.);
#682=ORIENTED_EDGE('',*,*,#483,.T.);
#683=ORIENTED_EDGE('',*,*,#529,.F.);
#684=ORIENTED_EDGE('',*,*,#495,.T.);
#685=ORIENTED_EDGE('',*,*,#499,.F.);
#686=ORIENTED_EDGE('',*,*,#502,.T.);
#687=ORIENTED_EDGE('',*,*,#505,.T.);
#688=ORIENTED_EDGE('',*,*,#508,.F.);
#689=ORIENTED_EDGE('',*,*,#511,.F.);
#690=ORIENTED_EDGE('',*,*,#514,.T.);
#691=ORIENTED_EDGE('',*,*,#517,.F.);
#692=ORIENTED_EDGE('',*,*,#520,.T.);
#693=ORIENTED_EDGE('',*,*,#523,.T.);
#694=ORIENTED_EDGE('',*,*,#526,.F.);
#695=ORIENTED_EDGE('',*,*,#494,.F.);
#696=ORIENTED_EDGE('',*,*,#491,.F.);
#697=ORIENTED_EDGE('',*,*,#488,.F.);
#698=ORIENTED_EDGE('',*,*,#485,.F.);
#699=ORIENTED_EDGE('',*,*,#531,.F.);
#700=ORIENTED_EDGE('',*,*,#532,.T.);
#701=ORIENTED_EDGE('',*,*,#533,.F.);
#702=ORIENTED_EDGE('',*,*,#534,.F.);
#703=ORIENTED_EDGE('',*,*,#535,.F.);
#704=ORIENTED_EDGE('',*,*,#534,.T.);
#705=ORIENTED_EDGE('',*,*,#536,.F.);
#706=ORIENTED_EDGE('',*,*,#537,.F.);
#707=ORIENTED_EDGE('',*,*,#538,.F.);
#708=ORIENTED_EDGE('',*,*,#537,.T.);
#709=ORIENTED_EDGE('',*,*,#539,.F.);
#710=ORIENTED_EDGE('',*,*,#540,.F.);
#711=ORIENTED_EDGE('',*,*,#541,.F.);
#712=ORIENTED_EDGE('',*,*,#540,.T.);
#713=ORIENTED_EDGE('',*,*,#542,.F.);
#714=ORIENTED_EDGE('',*,*,#543,.F.);
#715=ORIENTED_EDGE('',*,*,#544,.F.);
#716=ORIENTED_EDGE('',*,*,#543,.T.);
#717=ORIENTED_EDGE('',*,*,#545,.F.);
#718=ORIENTED_EDGE('',*,*,#546,.F.);
#719=ORIENTED_EDGE('',*,*,#547,.F.);
#720=ORIENTED_EDGE('',*,*,#546,.T.);
#721=ORIENTED_EDGE('',*,*,#548,.F.);
#722=ORIENTED_EDGE('',*,*,#549,.F.);
#723=ORIENTED_EDGE('',*,*,#550,.F.);
#724=ORIENTED_EDGE('',*,*,#549,.T.);
#725=ORIENTED_EDGE('',*,*,#551,.F.);
#726=ORIENTED_EDGE('',*,*,#552,.F.);
#727=ORIENTED_EDGE('',*,*,#553,.T.);
#728=ORIENTED_EDGE('',*,*,#552,.T.);
#729=ORIENTED_EDGE('',*,*,#554,.F.);
#730=ORIENTED_EDGE('',*,*,#555,.F.);
#731=ORIENTED_EDGE('',*,*,#556,.T.);
#732=ORIENTED_EDGE('',*,*,#555,.T.);
#733=ORIENTED_EDGE('',*,*,#557,.F.);
#734=ORIENTED_EDGE('',*,*,#558,.F.);
#735=ORIENTED_EDGE('',*,*,#559,.T.);
#736=ORIENTED_EDGE('',*,*,#558,.T.);
#737=ORIENTED_EDGE('',*,*,#560,.F.);
#738=ORIENTED_EDGE('',*,*,#561,.F.);
#739=ORIENTED_EDGE('',*,*,#562,.T.);
#740=ORIENTED_EDGE('',*,*,#561,.T.);
#741=ORIENTED_EDGE('',*,*,#563,.F.);
#742=ORIENTED_EDGE('',*,*,#564,.F.);
#743=ORIENTED_EDGE('',*,*,#565,.T.);
#744=ORIENTED_EDGE('',*,*,#564,.T.);
#745=ORIENTED_EDGE('',*,*,#566,.F.);
#746=ORIENTED_EDGE('',*,*,#532,.F.);
#747=ORIENTED_EDGE('',*,*,#566,.T.);
#748=ORIENTED_EDGE('',*,*,#563,.T.);
#749=ORIENTED_EDGE('',*,*,#560,.T.);
#750=ORIENTED_EDGE('',*,*,#557,.T.);
#751=ORIENTED_EDGE('',*,*,#554,.T.);
#752=ORIENTED_EDGE('',*,*,#551,.T.);
#753=ORIENTED_EDGE('',*,*,#548,.T.);
#754=ORIENTED_EDGE('',*,*,#545,.T.);
#755=ORIENTED_EDGE('',*,*,#542,.T.);
#756=ORIENTED_EDGE('',*,*,#539,.T.);
#757=ORIENTED_EDGE('',*,*,#536,.T.);
#758=ORIENTED_EDGE('',*,*,#533,.T.);
#759=ORIENTED_EDGE('',*,*,#565,.F.);
#760=ORIENTED_EDGE('',*,*,#531,.T.);
#761=ORIENTED_EDGE('',*,*,#535,.T.);
#762=ORIENTED_EDGE('',*,*,#538,.T.);
#763=ORIENTED_EDGE('',*,*,#541,.T.);
#764=ORIENTED_EDGE('',*,*,#544,.T.);
#765=ORIENTED_EDGE('',*,*,#547,.T.);
#766=ORIENTED_EDGE('',*,*,#550,.T.);
#767=ORIENTED_EDGE('',*,*,#553,.F.);
#768=ORIENTED_EDGE('',*,*,#556,.F.);
#769=ORIENTED_EDGE('',*,*,#559,.F.);
#770=ORIENTED_EDGE('',*,*,#562,.F.);
#771=ORIENTED_EDGE('',*,*,#567,.F.);
#772=ORIENTED_EDGE('',*,*,#568,.T.);
#773=ORIENTED_EDGE('',*,*,#569,.F.);
#774=ORIENTED_EDGE('',*,*,#570,.F.);
#775=ORIENTED_EDGE('',*,*,#571,.F.);
#776=ORIENTED_EDGE('',*,*,#570,.T.);
#777=ORIENTED_EDGE('',*,*,#572,.F.);
#778=ORIENTED_EDGE('',*,*,#573,.F.);
#779=ORIENTED_EDGE('',*,*,#574,.F.);
#780=ORIENTED_EDGE('',*,*,#573,.T.);
#781=ORIENTED_EDGE('',*,*,#575,.F.);
#782=ORIENTED_EDGE('',*,*,#576,.F.);
#783=ORIENTED_EDGE('',*,*,#577,.F.);
#784=ORIENTED_EDGE('',*,*,#576,.T.);
#785=ORIENTED_EDGE('',*,*,#578,.F.);
#786=ORIENTED_EDGE('',*,*,#568,.F.);
#787=ORIENTED_EDGE('',*,*,#579,.T.);
#788=ORIENTED_EDGE('',*,*,#580,.T.);
#789=ORIENTED_EDGE('',*,*,#581,.T.);
#790=ORIENTED_EDGE('',*,*,#582,.T.);
#791=ORIENTED_EDGE('',*,*,#578,.T.);
#792=ORIENTED_EDGE('',*,*,#575,.T.);
#793=ORIENTED_EDGE('',*,*,#572,.T.);
#794=ORIENTED_EDGE('',*,*,#569,.T.);
#795=ORIENTED_EDGE('',*,*,#583,.F.);
#796=ORIENTED_EDGE('',*,*,#584,.T.);
#797=ORIENTED_EDGE('',*,*,#581,.F.);
#798=ORIENTED_EDGE('',*,*,#585,.F.);
#799=ORIENTED_EDGE('',*,*,#586,.F.);
#800=ORIENTED_EDGE('',*,*,#585,.T.);
#801=ORIENTED_EDGE('',*,*,#580,.F.);
#802=ORIENTED_EDGE('',*,*,#587,.F.);
#803=ORIENTED_EDGE('',*,*,#588,.F.);
#804=ORIENTED_EDGE('',*,*,#587,.T.);
#805=ORIENTED_EDGE('',*,*,#579,.F.);
#806=ORIENTED_EDGE('',*,*,#589,.F.);
#807=ORIENTED_EDGE('',*,*,#590,.F.);
#808=ORIENTED_EDGE('',*,*,#589,.T.);
#809=ORIENTED_EDGE('',*,*,#582,.F.);
#810=ORIENTED_EDGE('',*,*,#584,.F.);
#811=ORIENTED_EDGE('',*,*,#567,.T.);
#812=ORIENTED_EDGE('',*,*,#571,.T.);
#813=ORIENTED_EDGE('',*,*,#574,.T.);
#814=ORIENTED_EDGE('',*,*,#577,.T.);
#815=ORIENTED_EDGE('',*,*,#590,.T.);
#816=ORIENTED_EDGE('',*,*,#583,.T.);
#817=ORIENTED_EDGE('',*,*,#586,.T.);
#818=ORIENTED_EDGE('',*,*,#588,.T.);
#819=ORIENTED_EDGE('',*,*,#591,.F.);
#820=ORIENTED_EDGE('',*,*,#592,.T.);
#821=ORIENTED_EDGE('',*,*,#593,.F.);
#822=ORIENTED_EDGE('',*,*,#594,.F.);
#823=ORIENTED_EDGE('',*,*,#595,.F.);
#824=ORIENTED_EDGE('',*,*,#594,.T.);
#825=ORIENTED_EDGE('',*,*,#596,.F.);
#826=ORIENTED_EDGE('',*,*,#597,.F.);
#827=ORIENTED_EDGE('',*,*,#598,.F.);
#828=ORIENTED_EDGE('',*,*,#597,.T.);
#829=ORIENTED_EDGE('',*,*,#599,.F.);
#830=ORIENTED_EDGE('',*,*,#600,.F.);
#831=ORIENTED_EDGE('',*,*,#601,.F.);
#832=ORIENTED_EDGE('',*,*,#600,.T.);
#833=ORIENTED_EDGE('',*,*,#602,.F.);
#834=ORIENTED_EDGE('',*,*,#592,.F.);
#835=ORIENTED_EDGE('',*,*,#602,.T.);
#836=ORIENTED_EDGE('',*,*,#599,.T.);
#837=ORIENTED_EDGE('',*,*,#596,.T.);
#838=ORIENTED_EDGE('',*,*,#593,.T.);
#839=ORIENTED_EDGE('',*,*,#601,.T.);
#840=ORIENTED_EDGE('',*,*,#591,.T.);
#841=ORIENTED_EDGE('',*,*,#595,.T.);
#842=ORIENTED_EDGE('',*,*,#598,.T.);
#843=CYLINDRICAL_SURFACE('',#917,1.5);
#844=CYLINDRICAL_SURFACE('',#920,1.5);
#845=CYLINDRICAL_SURFACE('',#923,1.5);
#846=CYLINDRICAL_SURFACE('',#926,1.5);
#847=CYLINDRICAL_SURFACE('',#930,4.);
#848=CYLINDRICAL_SURFACE('',#936,3.99999999999999);
#849=CYLINDRICAL_SURFACE('',#940,4.00000000000026);
#850=CYLINDRICAL_SURFACE('',#946,3.99999999999728);
#851=ADVANCED_FACE('',(#72),#843,.F.);
#852=ADVANCED_FACE('',(#73),#844,.F.);
#853=ADVANCED_FACE('',(#74),#845,.F.);
#854=ADVANCED_FACE('',(#75),#846,.F.);
#855=ADVANCED_FACE('',(#76),#31,.T.);
#856=ADVANCED_FACE('',(#77),#847,.T.);
#857=ADVANCED_FACE('',(#78),#32,.T.);
#858=ADVANCED_FACE('',(#79),#33,.T.);
#859=ADVANCED_FACE('',(#80),#34,.T.);
#860=ADVANCED_FACE('',(#81),#848,.T.);
#861=ADVANCED_FACE('',(#82),#35,.T.);
#862=ADVANCED_FACE('',(#83),#849,.T.);
#863=ADVANCED_FACE('',(#84),#36,.T.);
#864=ADVANCED_FACE('',(#85),#37,.T.);
#865=ADVANCED_FACE('',(#86),#38,.T.);
#866=ADVANCED_FACE('',(#87),#850,.T.);
#867=ADVANCED_FACE('',(#88,#22,#23,#24,#25),#39,.T.);
#868=ADVANCED_FACE('',(#89,#26,#27,#28,#29),#40,.F.);
#869=ADVANCED_FACE('',(#90),#41,.T.);
#870=ADVANCED_FACE('',(#91),#42,.T.);
#871=ADVANCED_FACE('',(#92),#43,.T.);
#872=ADVANCED_FACE('',(#93),#44,.T.);
#873=ADVANCED_FACE('',(#94),#45,.T.);
#874=ADVANCED_FACE('',(#95),#46,.T.);
#875=ADVANCED_FACE('',(#96),#47,.T.);
#876=ADVANCED_FACE('',(#97),#48,.T.);
#877=ADVANCED_FACE('',(#98),#49,.T.);
#878=ADVANCED_FACE('',(#99),#50,.T.);
#879=ADVANCED_FACE('',(#100),#51,.T.);
#880=ADVANCED_FACE('',(#101),#52,.T.);
#881=ADVANCED_FACE('',(#102),#53,.T.);
#882=ADVANCED_FACE('',(#103),#54,.F.);
#883=ADVANCED_FACE('',(#104),#55,.T.);
#884=ADVANCED_FACE('',(#105),#56,.T.);
#885=ADVANCED_FACE('',(#106),#57,.T.);
#886=ADVANCED_FACE('',(#107),#58,.T.);
#887=ADVANCED_FACE('',(#108,#30),#59,.T.);
#888=ADVANCED_FACE('',(#109),#60,.T.);
#889=ADVANCED_FACE('',(#110),#61,.T.);
#890=ADVANCED_FACE('',(#111),#62,.T.);
#891=ADVANCED_FACE('',(#112),#63,.T.);
#892=ADVANCED_FACE('',(#113),#64,.T.);
#893=ADVANCED_FACE('',(#114),#65,.F.);
#894=ADVANCED_FACE('',(#115),#66,.T.);
#895=ADVANCED_FACE('',(#116),#67,.T.);
#896=ADVANCED_FACE('',(#117),#68,.T.);
#897=ADVANCED_FACE('',(#118),#69,.T.);
#898=ADVANCED_FACE('',(#119),#70,.T.);
#899=ADVANCED_FACE('',(#120),#71,.F.);
#900=CLOSED_SHELL('',(#851,#852,#853,#854,#855,#856,#857,#858,#859,#860,
#861,#862,#863,#864,#865,#866,#867,#868));
#901=CLOSED_SHELL('',(#869,#870,#871,#872,#873,#874,#875,#876,#877,#878,
#879,#880,#881,#882));
#902=CLOSED_SHELL('',(#883,#884,#885,#886,#887,#888,#889,#890,#891,#892,
#893));
#903=CLOSED_SHELL('',(#894,#895,#896,#897,#898,#899));
#904=DERIVED_UNIT_ELEMENT(#906,1.);
#905=DERIVED_UNIT_ELEMENT(#1473,3.);
#906=(
MASS_UNIT()
NAMED_UNIT(*)
SI_UNIT(.KILO.,.GRAM.)
);
#907=DERIVED_UNIT((#904,#905));
#908=MEASURE_REPRESENTATION_ITEM('density measure',
POSITIVE_RATIO_MEASURE(7850.),#907);
#909=PROPERTY_DEFINITION_REPRESENTATION(#914,#911);
#910=PROPERTY_DEFINITION_REPRESENTATION(#915,#912);
#911=REPRESENTATION('material name',(#913),#1470);
#912=REPRESENTATION('density',(#908),#1470);
#913=DESCRIPTIVE_REPRESENTATION_ITEM('Steel','Steel');
#914=PROPERTY_DEFINITION('material property','material name',#1480);
#915=PROPERTY_DEFINITION('material property','density of part',#1480);
#916=AXIS2_PLACEMENT_3D('placement',#1218,#982,#983);
#917=AXIS2_PLACEMENT_3D('',#1219,#984,#985);
#918=AXIS2_PLACEMENT_3D('',#1221,#986,#987);
#919=AXIS2_PLACEMENT_3D('',#1224,#989,#990);
#920=AXIS2_PLACEMENT_3D('',#1225,#991,#992);
#921=AXIS2_PLACEMENT_3D('',#1227,#993,#994);
#922=AXIS2_PLACEMENT_3D('',#1230,#996,#997);
#923=AXIS2_PLACEMENT_3D('',#1231,#998,#999);
#924=AXIS2_PLACEMENT_3D('',#1233,#1000,#1001);
#925=AXIS2_PLACEMENT_3D('',#1236,#1003,#1004);
#926=AXIS2_PLACEMENT_3D('',#1237,#1005,#1006);
#927=AXIS2_PLACEMENT_3D('',#1239,#1007,#1008);
#928=AXIS2_PLACEMENT_3D('',#1242,#1010,#1011);
#929=AXIS2_PLACEMENT_3D('',#1243,#1012,#1013);
#930=AXIS2_PLACEMENT_3D('',#1252,#1018,#1019);
#931=AXIS2_PLACEMENT_3D('',#1254,#1020,#1021);
#932=AXIS2_PLACEMENT_3D('',#1256,#1022,#1023);
#933=AXIS2_PLACEMENT_3D('',#1258,#1025,#1026);
#934=AXIS2_PLACEMENT_3D('',#1264,#1030,#1031);
#935=AXIS2_PLACEMENT_3D('',#1270,#1035,#1036);
#936=AXIS2_PLACEMENT_3D('',#1276,#1040,#1041);
#937=AXIS2_PLACEMENT_3D('',#1278,#1042,#1043);
#938=AXIS2_PLACEMENT_3D('',#1280,#1044,#1045);
#939=AXIS2_PLACEMENT_3D('',#1282,#1047,#1048);
#940=AXIS2_PLACEMENT_3D('',#1288,#1052,#1053);
#941=AXIS2_PLACEMENT_3D('',#1290,#1054,#1055);
#942=AXIS2_PLACEMENT_3D('',#1292,#1056,#1057);
#943=AXIS2_PLACEMENT_3D('',#1294,#1059,#1060);
#944=AXIS2_PLACEMENT_3D('',#1300,#1064,#1065);
#945=AXIS2_PLACEMENT_3D('',#1306,#1069,#1070);
#946=AXIS2_PLACEMENT_3D('',#1312,#1074,#1075);
#947=AXIS2_PLACEMENT_3D('',#1313,#1076,#1077);
#948=AXIS2_PLACEMENT_3D('',#1314,#1078,#1079);
#949=AXIS2_PLACEMENT_3D('',#1315,#1080,#1081);
#950=AXIS2_PLACEMENT_3D('',#1316,#1082,#1083);
#951=AXIS2_PLACEMENT_3D('',#1317,#1084,#1085);
#952=AXIS2_PLACEMENT_3D('',#1326,#1090,#1091);
#953=AXIS2_PLACEMENT_3D('',#1332,#1095,#1096);
#954=AXIS2_PLACEMENT_3D('',#1338,#1100,#1101);
#955=AXIS2_PLACEMENT_3D('',#1344,#1105,#1106);
#956=AXIS2_PLACEMENT_3D('',#1350,#1110,#1111);
#957=AXIS2_PLACEMENT_3D('',#1356,#1115,#1116);
#958=AXIS2_PLACEMENT_3D('',#1362,#1120,#1121);
#959=AXIS2_PLACEMENT_3D('',#1368,#1125,#1126);
#960=AXIS2_PLACEMENT_3D('',#1374,#1130,#1131);
#961=AXIS2_PLACEMENT_3D('',#1380,#1135,#1136);
#962=AXIS2_PLACEMENT_3D('',#1386,#1140,#1141);
#963=AXIS2_PLACEMENT_3D('',#1389,#1144,#1145);
#964=AXIS2_PLACEMENT_3D('',#1390,#1146,#1147);
#965=AXIS2_PLACEMENT_3D('',#1391,#1148,#1149);
#966=AXIS2_PLACEMENT_3D('',#1400,#1154,#1155);
#967=AXIS2_PLACEMENT_3D('',#1406,#1159,#1160);
#968=AXIS2_PLACEMENT_3D('',#1412,#1164,#1165);
#969=AXIS2_PLACEMENT_3D('',#1415,#1168,#1169);
#970=AXIS2_PLACEMENT_3D('',#1424,#1174,#1175);
#971=AXIS2_PLACEMENT_3D('',#1430,#1179,#1180);
#972=AXIS2_PLACEMENT_3D('',#1434,#1183,#1184);
#973=AXIS2_PLACEMENT_3D('',#1438,#1187,#1188);
#974=AXIS2_PLACEMENT_3D('',#1440,#1190,#1191);
#975=AXIS2_PLACEMENT_3D('',#1441,#1192,#1193);
#976=AXIS2_PLACEMENT_3D('',#1442,#1194,#1195);
#977=AXIS2_PLACEMENT_3D('',#1451,#1200,#1201);
#978=AXIS2_PLACEMENT_3D('',#1457,#1205,#1206);
#979=AXIS2_PLACEMENT_3D('',#1463,#1210,#1211);
#980=AXIS2_PLACEMENT_3D('',#1466,#1214,#1215);
#981=AXIS2_PLACEMENT_3D('',#1467,#1216,#1217);
#982=DIRECTION('axis',(0.,0.,1.));
#983=DIRECTION('refdir',(1.,0.,0.));
#984=DIRECTION('center_axis',(0.,0.,1.));
#985=DIRECTION('ref_axis',(1.,0.,0.));
#986=DIRECTION('center_axis',(0.,0.,-1.));
#987=DIRECTION('ref_axis',(1.,0.,0.));
#988=DIRECTION('',(0.,0.,-1.));
#989=DIRECTION('center_axis',(0.,0.,-1.));
#990=DIRECTION('ref_axis',(1.,0.,0.));
#991=DIRECTION('center_axis',(0.,0.,1.));
#992=DIRECTION('ref_axis',(1.,0.,0.));
#993=DIRECTION('center_axis',(0.,0.,-1.));
#994=DIRECTION('ref_axis',(1.,0.,0.));
#995=DIRECTION('',(0.,0.,-1.));
#996=DIRECTION('center_axis',(0.,0.,-1.));
#997=DIRECTION('ref_axis',(1.,0.,0.));
#998=DIRECTION('center_axis',(0.,0.,1.));
#999=DIRECTION('ref_axis',(1.,0.,0.));
#1000=DIRECTION('center_axis',(0.,0.,-1.));
#1001=DIRECTION('ref_axis',(1.,0.,0.));
#1002=DIRECTION('',(0.,0.,-1.));
#1003=DIRECTION('center_axis',(0.,0.,-1.));
#1004=DIRECTION('ref_axis',(1.,0.,0.));
#1005=DIRECTION('center_axis',(0.,0.,1.));
#1006=DIRECTION('ref_axis',(1.,0.,0.));
#1007=DIRECTION('center_axis',(0.,0.,-1.));
#1008=DIRECTION('ref_axis',(1.,0.,0.));
#1009=DIRECTION('',(0.,0.,-1.));
#1010=DIRECTION('center_axis',(0.,0.,-1.));
#1011=DIRECTION('ref_axis',(1.,0.,0.));
#1012=DIRECTION('center_axis',(-1.,-6.85632904218511E-13,0.));
#1013=DIRECTION('ref_axis',(6.85632904218511E-13,-1.,0.));
#1014=DIRECTION('',(-6.85632904218511E-13,1.,0.));
#1015=DIRECTION('',(0.,0.,1.));
#1016=DIRECTION('',(6.85632904218511E-13,-1.,0.));
#1017=DIRECTION('',(0.,0.,1.));
#1018=DIRECTION('center_axis',(0.,0.,1.));
#1019=DIRECTION('ref_axis',(-4.37150315946155E-15,1.,0.));
#1020=DIRECTION('center_axis',(0.,0.,1.));
#1021=DIRECTION('ref_axis',(0.880211833104088,-0.474581003479429,0.));
#1022=DIRECTION('center_axis',(0.,0.,1.));
#1023=DIRECTION('ref_axis',(0.880211833104088,-0.474581003479429,0.));
#1024=DIRECTION('',(0.,0.,1.));
#1025=DIRECTION('center_axis',(1.,-1.14673702632396E-12,0.));
#1026=DIRECTION('ref_axis',(1.14673702632396E-12,1.,0.));
#1027=DIRECTION('',(-1.14673702632396E-12,-1.,0.));
#1028=DIRECTION('',(1.14673702632396E-12,1.,0.));
#1029=DIRECTION('',(0.,0.,1.));
#1030=DIRECTION('center_axis',(0.,1.,0.));
#1031=DIRECTION('ref_axis',(-1.,0.,0.));
#1032=DIRECTION('',(1.,0.,0.));
#1033=DIRECTION('',(-1.,0.,0.));
#1034=DIRECTION('',(0.,0.,1.));
#1035=DIRECTION('center_axis',(-1.,1.97372938294932E-15,0.));
#1036=DIRECTION('ref_axis',(-1.97372938294932E-15,-1.,0.));
#1037=DIRECTION('',(-1.97372938294932E-15,-1.,0.));
#1038=DIRECTION('',(-1.97372938294932E-15,-1.,0.));
#1039=DIRECTION('',(0.,0.,1.));
#1040=DIRECTION('center_axis',(0.,0.,1.));
#1041=DIRECTION('ref_axis',(1.,0.,0.));
#1042=DIRECTION('center_axis',(0.,0.,1.));
#1043=DIRECTION('ref_axis',(1.,0.,0.));
#1044=DIRECTION('center_axis',(0.,0.,1.));
#1045=DIRECTION('ref_axis',(1.,0.,0.));
#1046=DIRECTION('',(0.,0.,1.));
#1047=DIRECTION('center_axis',(1.,2.52671444079114E-13,0.));
#1048=DIRECTION('ref_axis',(-2.52671444079114E-13,1.,0.));
#1049=DIRECTION('',(2.52671444079114E-13,-1.,0.));
#1050=DIRECTION('',(-2.52671444079114E-13,1.,0.));
#1051=DIRECTION('',(0.,0.,1.));
#1052=DIRECTION('center_axis',(0.,0.,1.));
#1053=DIRECTION('ref_axis',(-6.93889390390678E-17,-1.,0.));
#1054=DIRECTION('center_axis',(0.,0.,1.));
#1055=DIRECTION('ref_axis',(-0.883575933815278,0.46828791270164,0.));
#1056=DIRECTION('center_axis',(0.,0.,1.));
#1057=DIRECTION('ref_axis',(-0.883575933815278,0.46828791270164,0.));
#1058=DIRECTION('',(0.,0.,1.));
#1059=DIRECTION('center_axis',(-1.,4.77642616806532E-13,0.));
#1060=DIRECTION('ref_axis',(-4.77642616806532E-13,-1.,0.));
#1061=DIRECTION('',(4.77642616806532E-13,1.,0.));
#1062=DIRECTION('',(-4.77642616806532E-13,-1.,0.));
#1063=DIRECTION('',(0.,0.,1.));
#1064=DIRECTION('center_axis',(-7.34031751818287E-17,-1.,0.));
#1065=DIRECTION('ref_axis',(1.,-7.34031751818287E-17,0.));
#1066=DIRECTION('',(-1.,7.34031751818287E-17,0.));
#1067=DIRECTION('',(1.,-7.34031751818287E-17,0.));
#1068=DIRECTION('',(0.,0.,1.));
#1069=DIRECTION('center_axis',(1.,1.20930426164765E-11,0.));
#1070=DIRECTION('ref_axis',(-1.20930426164765E-11,1.,0.));
#1071=DIRECTION('',(-1.20930426164765E-11,1.,0.));
#1072=DIRECTION('',(-1.20930426164765E-11,1.,0.));
#1073=DIRECTION('',(0.,0.,1.));
#1074=DIRECTION('center_axis',(0.,0.,1.));
#1075=DIRECTION('ref_axis',(-1.,-5.00932628711212E-12,0.));
#1076=DIRECTION('center_axis',(0.,0.,1.));
#1077=DIRECTION('ref_axis',(-1.,-5.00932628711212E-12,0.));
#1078=DIRECTION('center_axis',(0.,0.,1.));
#1079=DIRECTION('ref_axis',(-1.,-5.00932628711212E-12,0.));
#1080=DIRECTION('center_axis',(0.,0.,1.));
#1081=DIRECTION('ref_axis',(1.,0.,0.));
#1082=DIRECTION('center_axis',(0.,0.,1.));
#1083=DIRECTION('ref_axis',(1.,0.,0.));
#1084=DIRECTION('center_axis',(0.,-1.,0.));
#1085=DIRECTION('ref_axis',(1.,0.,0.));
#1086=DIRECTION('',(-1.,0.,0.));
#1087=DIRECTION('',(0.,0.,1.));
#1088=DIRECTION('',(1.,0.,0.));
#1089=DIRECTION('',(0.,0.,1.));
#1090=DIRECTION('center_axis',(1.,-3.86164533306647E-16,0.));
#1091=DIRECTION('ref_axis',(3.86164533306647E-16,1.,0.));
#1092=DIRECTION('',(-3.86164533306647E-16,-1.,0.));
#1093=DIRECTION('',(3.86164533306647E-16,1.,0.));
#1094=DIRECTION('',(0.,0.,1.));
#1095=DIRECTION('center_axis',(0.,-1.,0.));
#1096=DIRECTION('ref_axis',(1.,0.,0.));
#1097=DIRECTION('',(-1.,0.,0.));
#1098=DIRECTION('',(1.,0.,0.));
#1099=DIRECTION('',(0.,0.,1.));
#1100=DIRECTION('center_axis',(-1.,0.,0.));
#1101=DIRECTION('ref_axis',(0.,-1.,0.));
#1102=DIRECTION('',(0.,1.,0.));
#1103=DIRECTION('',(0.,-1.,0.));
#1104=DIRECTION('',(0.,0.,1.));
#1105=DIRECTION('center_axis',(0.,1.,0.));
#1106=DIRECTION('ref_axis',(-1.,0.,0.));
#1107=DIRECTION('',(1.,0.,0.));
#1108=DIRECTION('',(-1.,0.,0.));
#1109=DIRECTION('',(0.,0.,1.));
#1110=DIRECTION('center_axis',(1.,0.,0.));
#1111=DIRECTION('ref_axis',(0.,1.,0.));
#1112=DIRECTION('',(0.,-1.,0.));
#1113=DIRECTION('',(0.,1.,0.));
#1114=DIRECTION('',(0.,0.,1.));
#1115=DIRECTION('center_axis',(0.,1.,0.));
#1116=DIRECTION('ref_axis',(-1.,0.,0.));
#1117=DIRECTION('',(1.,0.,0.));
#1118=DIRECTION('',(-1.,0.,0.));
#1119=DIRECTION('',(0.,0.,1.));
#1120=DIRECTION('center_axis',(-1.,3.86164530304403E-16,0.));
#1121=DIRECTION('ref_axis',(-3.86164530304403E-16,-1.,0.));
#1122=DIRECTION('',(-3.86164530304403E-16,-1.,0.));
#1123=DIRECTION('',(-3.86164530304403E-16,-1.,0.));
#1124=DIRECTION('',(0.,0.,1.));
#1125=DIRECTION('center_axis',(6.34413147475168E-16,1.,0.));
#1126=DIRECTION('ref_axis',(-1.,6.34413147475168E-16,0.));
#1127=DIRECTION('',(-1.,6.34413147475168E-16,0.));
#1128=DIRECTION('',(-1.,6.34413147475168E-16,0.));
#1129=DIRECTION('',(0.,0.,1.));
#1130=DIRECTION('center_axis',(1.,-5.07530521761532E-16,0.));
#1131=DIRECTION('ref_axis',(5.07530521761532E-16,1.,0.));
#1132=DIRECTION('',(5.07530521761532E-16,1.,0.));
#1133=DIRECTION('',(5.07530521761532E-16,1.,0.));
#1134=DIRECTION('',(0.,0.,1.));
#1135=DIRECTION('center_axis',(0.,-1.,0.));
#1136=DIRECTION('ref_axis',(1.,0.,0.));
#1137=DIRECTION('',(1.,0.,0.));
#1138=DIRECTION('',(1.,0.,0.));
#1139=DIRECTION('',(0.,0.,1.));
#1140=DIRECTION('center_axis',(-1.,3.86164533306647E-16,0.));
#1141=DIRECTION('ref_axis',(-3.86164533306647E-16,-1.,0.));
#1142=DIRECTION('',(-3.86164533306647E-16,-1.,0.));
#1143=DIRECTION('',(-3.86164533306647E-16,-1.,0.));
#1144=DIRECTION('center_axis',(0.,0.,1.));
#1145=DIRECTION('ref_axis',(1.,0.,0.));
#1146=DIRECTION('center_axis',(0.,0.,1.));
#1147=DIRECTION('ref_axis',(-1.,0.,0.));
#1148=DIRECTION('center_axis',(-1.,1.30614473485313E-16,0.));
#1149=DIRECTION('ref_axis',(-1.30614473485313E-16,-1.,0.));
#1150=DIRECTION('',(1.30614473485313E-16,1.,0.));
#1151=DIRECTION('',(0.,0.,1.));
#1152=DIRECTION('',(-1.30614473485313E-16,-1.,0.));
#1153=DIRECTION('',(0.,0.,1.));
#1154=DIRECTION('center_axis',(0.,-1.,0.));
#1155=DIRECTION('ref_axis',(1.,0.,0.));
#1156=DIRECTION('',(-1.,0.,0.));
#1157=DIRECTION('',(1.,0.,0.));
#1158=DIRECTION('',(0.,0.,1.));
#1159=DIRECTION('center_axis',(1.,0.,0.));
#1160=DIRECTION('ref_axis',(0.,1.,0.));
#1161=DIRECTION('',(0.,-1.,0.));
#1162=DIRECTION('',(0.,1.,0.));
#1163=DIRECTION('',(0.,0.,1.));
#1164=DIRECTION('center_axis',(0.,1.,0.));
#1165=DIRECTION('ref_axis',(-1.,0.,0.));
#1166=DIRECTION('',(1.,0.,0.));
#1167=DIRECTION('',(-1.,0.,0.));
#1168=DIRECTION('center_axis',(0.,0.,1.));
#1169=DIRECTION('ref_axis',(1.,0.,0.));
#1170=DIRECTION('',(1.,0.,0.));
#1171=DIRECTION('',(1.13869028166683E-16,1.,0.));
#1172=DIRECTION('',(-1.,0.,0.));
#1173=DIRECTION('',(0.,-1.,0.));
#1174=DIRECTION('center_axis',(0.,1.,0.));
#1175=DIRECTION('ref_axis',(-1.,0.,0.));
#1176=DIRECTION('',(1.,0.,0.));
#1177=DIRECTION('',(0.,0.,1.));
#1178=DIRECTION('',(0.,0.,1.));
#1179=DIRECTION('center_axis',(1.,0.,0.));
#1180=DIRECTION('ref_axis',(0.,1.,0.));
#1181=DIRECTION('',(0.,-1.,0.));
#1182=DIRECTION('',(0.,0.,1.));
#1183=DIRECTION('center_axis',(0.,-1.,0.));
#1184=DIRECTION('ref_axis',(1.,0.,0.));
#1185=DIRECTION('',(-1.,0.,0.));
#1186=DIRECTION('',(0.,0.,1.));
#1187=DIRECTION('center_axis',(-1.,-6.85632904218511E-13,0.));
#1188=DIRECTION('ref_axis',(6.85632904218511E-13,-1.,0.));
#1189=DIRECTION('',(-6.85632904218511E-13,1.,0.));
#1190=DIRECTION('center_axis',(0.,0.,1.));
#1191=DIRECTION('ref_axis',(1.,0.,0.));
#1192=DIRECTION('center_axis',(0.,0.,1.));
#1193=DIRECTION('ref_axis',(-1.,0.,0.));
#1194=DIRECTION('center_axis',(-1.,0.,0.));
#1195=DIRECTION('ref_axis',(0.,-1.,0.));
#1196=DIRECTION('',(0.,1.,0.));
#1197=DIRECTION('',(0.,0.,1.));
#1198=DIRECTION('',(0.,-1.,0.));
#1199=DIRECTION('',(0.,0.,1.));
#1200=DIRECTION('center_axis',(0.,1.,0.));
#1201=DIRECTION('ref_axis',(-1.,0.,0.));
#1202=DIRECTION('',(1.,0.,0.));
#1203=DIRECTION('',(-1.,0.,0.));
#1204=DIRECTION('',(0.,0.,1.));
#1205=DIRECTION('center_axis',(1.,-1.30614473485313E-16,0.));
#1206=DIRECTION('ref_axis',(1.30614473485313E-16,1.,0.));
#1207=DIRECTION('',(-1.30614473485313E-16,-1.,0.));
#1208=DIRECTION('',(1.30614473485313E-16,1.,0.));
#1209=DIRECTION('',(0.,0.,1.));
#1210=DIRECTION('center_axis',(0.,-1.,0.));
#1211=DIRECTION('ref_axis',(1.,0.,0.));
#1212=DIRECTION('',(-1.,0.,0.));
#1213=DIRECTION('',(1.,0.,0.));
#1214=DIRECTION('center_axis',(0.,0.,1.));
#1215=DIRECTION('ref_axis',(1.,0.,0.));
#1216=DIRECTION('center_axis',(0.,0.,1.));
#1217=DIRECTION('ref_axis',(-1.,0.,0.));
#1218=CARTESIAN_POINT('',(0.,0.,0.));
#1219=CARTESIAN_POINT('Origin',(56.626790080674,43.4182685512858,0.));
#1220=CARTESIAN_POINT('',(55.126790080674,43.4182685512858,2.));
#1221=CARTESIAN_POINT('Origin',(56.626790080674,43.4182685512858,2.));
#1222=CARTESIAN_POINT('',(55.126790080674,43.4182685512858,0.));
#1223=CARTESIAN_POINT('',(55.126790080674,43.4182685512858,0.));
#1224=CARTESIAN_POINT('Origin',(56.626790080674,43.4182685512858,0.));
#1225=CARTESIAN_POINT('Origin',(56.6267900806955,-43.5817324488069,0.));
#1226=CARTESIAN_POINT('',(55.1267900806955,-43.5817324488069,2.));
#1227=CARTESIAN_POINT('Origin',(56.6267900806955,-43.5817324488069,2.));
#1228=CARTESIAN_POINT('',(55.1267900806955,-43.5817324488069,0.));
#1229=CARTESIAN_POINT('',(55.1267900806955,-43.5817324488069,0.));
#1230=CARTESIAN_POINT('Origin',(56.6267900806955,-43.5817324488069,0.));
#1231=CARTESIAN_POINT('Origin',(-56.3732099193157,43.4182675512857,0.));
#1232=CARTESIAN_POINT('',(-57.8732099193157,43.4182675512857,2.));
#1233=CARTESIAN_POINT('Origin',(-56.3732099193157,43.4182675512857,2.));
#1234=CARTESIAN_POINT('',(-57.8732099193157,43.4182675512857,0.));
#1235=CARTESIAN_POINT('',(-57.8732099193157,43.4182675512857,0.));
#1236=CARTESIAN_POINT('Origin',(-56.3732099193157,43.4182675512857,0.));
#1237=CARTESIAN_POINT('Origin',(-56.3732099192691,-43.5817324487672,0.));
#1238=CARTESIAN_POINT('',(-57.8732099192691,-43.5817324487672,2.));
#1239=CARTESIAN_POINT('Origin',(-56.3732099192691,-43.5817324487672,2.));
#1240=CARTESIAN_POINT('',(-57.8732099192691,-43.5817324487672,0.));
#1241=CARTESIAN_POINT('',(-57.8732099192691,-43.5817324487672,0.));
#1242=CARTESIAN_POINT('Origin',(-56.3732099192691,-43.5817324487672,0.));
#1243=CARTESIAN_POINT('Origin',(-60.373209919326,43.4182675512857,0.));
#1244=CARTESIAN_POINT('',(-60.3732099192663,-43.5817324487872,0.));
#1245=CARTESIAN_POINT('',(-60.3732099193157,43.4182675512857,0.));
#1246=CARTESIAN_POINT('',(-60.3732099192663,-43.5817324487872,0.));
#1247=CARTESIAN_POINT('',(-60.3732099192663,-43.5817324487872,2.));
#1248=CARTESIAN_POINT('',(-60.3732099192663,-43.5817324487872,0.));
#1249=CARTESIAN_POINT('',(-60.3732099193157,43.4182675512857,2.));
#1250=CARTESIAN_POINT('',(-60.3732099192663,-43.5817324487872,2.));
#1251=CARTESIAN_POINT('',(-60.3732099193157,43.4182675512857,0.));
#1252=CARTESIAN_POINT('Origin',(-56.3732099193157,43.4182675512857,0.));
#1253=CARTESIAN_POINT('',(-52.3732099193157,43.4182675512857,0.));
#1254=CARTESIAN_POINT('Origin',(-56.3732099193157,43.4182675512857,0.));
#1255=CARTESIAN_POINT('',(-52.3732099193157,43.4182675512857,2.));
#1256=CARTESIAN_POINT('Origin',(-56.3732099193157,43.4182675512857,2.));
#1257=CARTESIAN_POINT('',(-52.3732099193157,43.4182675512857,0.));
#1258=CARTESIAN_POINT('Origin',(-52.373209919326,38.9182675512858,0.));
#1259=CARTESIAN_POINT('',(-52.373209919326,38.9182675512858,0.));
#1260=CARTESIAN_POINT('',(-52.3732099193209,43.4182675512857,0.));
#1261=CARTESIAN_POINT('',(-52.373209919326,38.9182675512858,2.));
#1262=CARTESIAN_POINT('',(-52.3732099193209,43.4182675512857,2.));
#1263=CARTESIAN_POINT('',(-52.373209919326,38.9182675512858,0.));
#1264=CARTESIAN_POINT('Origin',(52.626790080674,38.9182675512858,0.));
#1265=CARTESIAN_POINT('',(52.626790080674,38.9182675512858,0.));
#1266=CARTESIAN_POINT('',(-60.3732099193022,38.9182675512858,0.));
#1267=CARTESIAN_POINT('',(52.626790080674,38.9182675512858,2.));
#1268=CARTESIAN_POINT('',(-60.3732099193022,38.9182675512858,2.));
#1269=CARTESIAN_POINT('',(52.626790080674,38.9182675512858,0.));
#1270=CARTESIAN_POINT('Origin',(52.626790080674,43.4182685512858,0.));
#1271=CARTESIAN_POINT('',(52.626790080674,43.4182685512858,0.));
#1272=CARTESIAN_POINT('',(52.626790080674,43.4182685512858,0.));
#1273=CARTESIAN_POINT('',(52.6267900806741,43.4182685512858,2.));
#1274=CARTESIAN_POINT('',(52.626790080674,43.4182685512858,2.));
#1275=CARTESIAN_POINT('',(52.626790080674,43.4182685512858,0.));
#1276=CARTESIAN_POINT('Origin',(56.626790080674,43.4182685512858,0.));
#1277=CARTESIAN_POINT('',(60.626790080674,43.4182685512858,0.));
#1278=CARTESIAN_POINT('Origin',(56.626790080674,43.4182685512858,0.));
#1279=CARTESIAN_POINT('',(60.626790080674,43.4182685512858,2.));
#1280=CARTESIAN_POINT('Origin',(56.626790080674,43.4182685512858,2.));
#1281=CARTESIAN_POINT('',(60.626790080674,43.4182685512858,0.));
#1282=CARTESIAN_POINT('Origin',(60.626790080696,-43.5817324488082,0.));
#1283=CARTESIAN_POINT('',(60.6267900806957,-43.5817324488082,0.));
#1284=CARTESIAN_POINT('',(60.626790080674,43.4182685512858,0.));
#1285=CARTESIAN_POINT('',(60.6267900806957,-43.5817324488082,2.));
#1286=CARTESIAN_POINT('',(60.626790080674,43.4182685512858,2.));
#1287=CARTESIAN_POINT('',(60.6267900806957,-43.5817324488082,0.));
#1288=CARTESIAN_POINT('Origin',(56.6267900806955,-43.5817324488069,0.));
#1289=CARTESIAN_POINT('',(52.6267900806952,-43.5817324488083,0.));
#1290=CARTESIAN_POINT('Origin',(56.6267900806955,-43.5817324488069,0.));
#1291=CARTESIAN_POINT('',(52.6267900806952,-43.5817324488083,2.));
#1292=CARTESIAN_POINT('Origin',(56.6267900806955,-43.5817324488069,2.));
#1293=CARTESIAN_POINT('',(52.6267900806952,-43.5817324488083,0.));
#1294=CARTESIAN_POINT('Origin',(52.6267900806988,-39.0817324487142,0.));
#1295=CARTESIAN_POINT('',(52.6267900806988,-39.0817324487142,0.));
#1296=CARTESIAN_POINT('',(52.6267900806966,-43.5817324488082,0.));
#1297=CARTESIAN_POINT('',(52.6267900806987,-39.0817324487142,2.));
#1298=CARTESIAN_POINT('',(52.6267900806966,-43.5817324488082,2.));
#1299=CARTESIAN_POINT('',(52.6267900806988,-39.0817324487142,0.));
#1300=CARTESIAN_POINT('Origin',(-52.37320991932,-39.0817324487142,0.));
#1301=CARTESIAN_POINT('',(-52.37320991932,-39.0817324487142,0.));
#1302=CARTESIAN_POINT('',(60.6267900806976,-39.0817324487142,0.));
#1303=CARTESIAN_POINT('',(-52.37320991932,-39.0817324487142,2.));
#1304=CARTESIAN_POINT('',(60.6267900806976,-39.0817324487142,2.));
#1305=CARTESIAN_POINT('',(-52.37320991932,-39.0817324487142,0.));
#1306=CARTESIAN_POINT('Origin',(-52.3732099192656,-43.5817324487872,0.));
#1307=CARTESIAN_POINT('',(-52.3732099192718,-43.5817324487872,0.));
#1308=CARTESIAN_POINT('',(-52.3732099192656,-43.5817324487872,0.));
#1309=CARTESIAN_POINT('',(-52.3732099192718,-43.5817324487872,2.));
#1310=CARTESIAN_POINT('',(-52.3732099192656,-43.5817324487872,2.));
#1311=CARTESIAN_POINT('',(-52.3732099192718,-43.5817324487872,0.));
#1312=CARTESIAN_POINT('Origin',(-56.3732099192691,-43.5817324487672,0.));
#1313=CARTESIAN_POINT('Origin',(-56.3732099192691,-43.5817324487672,0.));
#1314=CARTESIAN_POINT('Origin',(-56.3732099192691,-43.5817324487672,2.));
#1315=CARTESIAN_POINT('Origin',(0.126790080685799,-0.0817319487606838,2.));
#1316=CARTESIAN_POINT('Origin',(0.126790080685799,-0.0817319487606838,0.));
#1317=CARTESIAN_POINT('Origin',(-45.3732097106995,-12.0817331490688,2.));
#1318=CARTESIAN_POINT('',(45.6267898720681,-12.0817331490688,2.));
#1319=CARTESIAN_POINT('',(-45.3732097106995,-12.0817331490688,2.));
#1320=CARTESIAN_POINT('',(45.6267898720681,-12.0817331490688,2.));
#1321=CARTESIAN_POINT('',(45.6267898720681,-12.0817331490688,3.));
#1322=CARTESIAN_POINT('',(45.6267898720681,-12.0817331490688,2.));
#1323=CARTESIAN_POINT('',(-45.3732097106995,-12.0817331490688,3.));
#1324=CARTESIAN_POINT('',(45.6267898720681,-12.0817331490688,3.));
#1325=CARTESIAN_POINT('',(-45.3732097106995,-12.0817331490688,2.));
#1326=CARTESIAN_POINT('Origin',(-45.3732097106995,-35.0817329702547,2.));
#1327=CARTESIAN_POINT('',(-45.3732097106995,-35.0817329702547,2.));
#1328=CARTESIAN_POINT('',(-45.3732097106995,-12.0817331490688,2.));
#1329=CARTESIAN_POINT('',(-45.3732097106995,-35.0817329702547,3.));
#1330=CARTESIAN_POINT('',(-45.3732097106995,-12.0817331490688,3.));
#1331=CARTESIAN_POINT('',(-45.3732097106995,-35.0817329702547,2.));
#1332=CARTESIAN_POINT('Origin',(-59.3732099193157,-35.0817329702547,2.));
#1333=CARTESIAN_POINT('',(-59.3732099193157,-35.0817329702547,2.));
#1334=CARTESIAN_POINT('',(-45.3732097106995,-35.0817329702547,2.));
#1335=CARTESIAN_POINT('',(-59.3732099193157,-35.0817329702547,3.));
#1336=CARTESIAN_POINT('',(-45.3732097106995,-35.0817329702547,3.));
#1337=CARTESIAN_POINT('',(-59.3732099193157,-35.0817329702547,2.));
#1338=CARTESIAN_POINT('Origin',(-59.3732099193157,34.9182675512858,2.));
#1339=CARTESIAN_POINT('',(-59.3732099193157,34.9182675512858,2.));
#1340=CARTESIAN_POINT('',(-59.3732099193157,-35.0817329702547,2.));
#1341=CARTESIAN_POINT('',(-59.3732099193157,34.9182675512858,3.));
#1342=CARTESIAN_POINT('',(-59.3732099193157,-35.0817329702547,3.));
#1343=CARTESIAN_POINT('',(-59.3732099193157,34.9182675512858,2.));
#1344=CARTESIAN_POINT('Origin',(-45.3732097106995,34.9182675512858,2.));
#1345=CARTESIAN_POINT('',(-45.3732097106995,34.9182675512858,2.));
#1346=CARTESIAN_POINT('',(-59.3732099193157,34.9182675512858,2.));
#1347=CARTESIAN_POINT('',(-45.3732097106995,34.9182675512858,3.));
#1348=CARTESIAN_POINT('',(-59.3732099193157,34.9182675512858,3.));
#1349=CARTESIAN_POINT('',(-45.3732097106995,34.9182675512858,2.));
#1350=CARTESIAN_POINT('Origin',(-45.3732097106995,11.9182675512858,2.));
#1351=CARTESIAN_POINT('',(-45.3732097106995,11.9182675512858,2.));
#1352=CARTESIAN_POINT('',(-45.3732097106995,34.9182675512858,2.));
#1353=CARTESIAN_POINT('',(-45.3732097106995,11.9182675512858,3.));
#1354=CARTESIAN_POINT('',(-45.3732097106995,34.9182675512858,3.));
#1355=CARTESIAN_POINT('',(-45.3732097106995,11.9182675512858,2.));
#1356=CARTESIAN_POINT('Origin',(45.6267898720681,11.9182675512858,2.));
#1357=CARTESIAN_POINT('',(45.6267898720681,11.9182675512858,2.));
#1358=CARTESIAN_POINT('',(-45.3732097106995,11.9182675512858,2.));
#1359=CARTESIAN_POINT('',(45.6267898720681,11.9182675512858,3.));
#1360=CARTESIAN_POINT('',(-45.3732097106995,11.9182675512858,3.));
#1361=CARTESIAN_POINT('',(45.6267898720681,11.9182675512858,2.));
#1362=CARTESIAN_POINT('Origin',(45.6267898720681,34.9182675512858,2.));
#1363=CARTESIAN_POINT('',(45.6267898720681,34.9182675512858,2.));
#1364=CARTESIAN_POINT('',(45.6267898720681,34.9182675512858,2.));
#1365=CARTESIAN_POINT('',(45.6267898720681,34.9182675512858,3.));
#1366=CARTESIAN_POINT('',(45.6267898720681,34.9182675512858,3.));
#1367=CARTESIAN_POINT('',(45.6267898720681,34.9182675512858,2.));
#1368=CARTESIAN_POINT('Origin',(59.6267900806843,34.9182675512858,2.));
#1369=CARTESIAN_POINT('',(59.6267900806843,34.9182675512858,2.));
#1370=CARTESIAN_POINT('',(59.6267900806843,34.9182675512858,2.));
#1371=CARTESIAN_POINT('',(59.6267900806843,34.9182675512858,3.));
#1372=CARTESIAN_POINT('',(59.6267900806843,34.9182675512858,3.));
#1373=CARTESIAN_POINT('',(59.6267900806843,34.9182675512858,2.));
#1374=CARTESIAN_POINT('Origin',(59.6267900806843,-35.0817329702548,2.));
#1375=CARTESIAN_POINT('',(59.6267900806843,-35.0817329702548,2.));
#1376=CARTESIAN_POINT('',(59.6267900806843,-35.0817329702548,2.));
#1377=CARTESIAN_POINT('',(59.6267900806843,-35.0817329702548,3.));
#1378=CARTESIAN_POINT('',(59.6267900806843,-35.0817329702548,3.));
#1379=CARTESIAN_POINT('',(59.6267900806843,-35.0817329702548,2.));
#1380=CARTESIAN_POINT('Origin',(45.626789872068,-35.0817329702548,2.));
#1381=CARTESIAN_POINT('',(45.626789872068,-35.0817329702548,2.));
#1382=CARTESIAN_POINT('',(45.626789872068,-35.0817329702548,2.));
#1383=CARTESIAN_POINT('',(45.626789872068,-35.0817329702548,3.));
#1384=CARTESIAN_POINT('',(45.626789872068,-35.0817329702548,3.));
#1385=CARTESIAN_POINT('',(45.626789872068,-35.0817329702548,2.));
#1386=CARTESIAN_POINT('Origin',(45.6267898720681,-12.0817331490688,2.));
#1387=CARTESIAN_POINT('',(45.6267898720681,-12.0817331490688,2.));
#1388=CARTESIAN_POINT('',(45.6267898720681,-12.0817331490688,3.));
#1389=CARTESIAN_POINT('Origin',(0.126790080684307,-0.0817327094844744,3.));
#1390=CARTESIAN_POINT('Origin',(0.126790080684307,-0.0817327094844744,2.));
#1391=CARTESIAN_POINT('Origin',(54.6267900806771,35.9182675512858,6.));
#1392=CARTESIAN_POINT('',(54.6267900806771,-32.0817324487142,6.));
#1393=CARTESIAN_POINT('',(54.6267900806771,35.9182675512858,6.));
#1394=CARTESIAN_POINT('',(54.6267900806771,17.9182675512858,6.));
#1395=CARTESIAN_POINT('',(54.6267900806771,-32.0817324487142,7.));
#1396=CARTESIAN_POINT('',(54.6267900806771,-32.0817324487142,6.));
#1397=CARTESIAN_POINT('',(54.6267900806771,35.9182675512858,7.));
#1398=CARTESIAN_POINT('',(54.6267900806771,35.9182675512858,7.));
#1399=CARTESIAN_POINT('',(54.6267900806771,35.9182675512858,6.));
#1400=CARTESIAN_POINT('Origin',(-54.3732099193022,35.9182675512858,6.));
#1401=CARTESIAN_POINT('',(-54.3732099193022,35.9182675512858,6.));
#1402=CARTESIAN_POINT('',(-27.1232099193074,35.9182675512858,6.));
#1403=CARTESIAN_POINT('',(-54.3732099193022,35.9182675512858,7.));
#1404=CARTESIAN_POINT('',(-54.3732099193022,35.9182675512858,7.));
#1405=CARTESIAN_POINT('',(-54.3732099193022,35.9182675512858,6.));
#1406=CARTESIAN_POINT('Origin',(-54.3732099193022,-32.0817324487142,6.));
#1407=CARTESIAN_POINT('',(-54.3732099193022,-32.0817324487142,6.));
#1408=CARTESIAN_POINT('',(-54.3732099193022,-16.0817324487142,6.));
#1409=CARTESIAN_POINT('',(-54.3732099193022,-32.0817324487142,7.));
#1410=CARTESIAN_POINT('',(-54.3732099193022,-32.0817324487142,7.));
#1411=CARTESIAN_POINT('',(-54.3732099193022,-32.0817324487142,6.));
#1412=CARTESIAN_POINT('Origin',(54.6267900806771,-32.0817324487142,6.));
#1413=CARTESIAN_POINT('',(27.3767900806822,-32.0817324487142,6.));
#1414=CARTESIAN_POINT('',(54.6267900806771,-32.0817324487142,7.));
#1415=CARTESIAN_POINT('Origin',(0.12679008068746,-0.0817324487142024,7.));
#1416=CARTESIAN_POINT('',(-60.3732099193022,-39.0817324487142,7.));
#1417=CARTESIAN_POINT('',(60.6267900806771,-39.0817324487142,7.));
#1418=CARTESIAN_POINT('',(60.6267900806771,-39.0817324487142,7.));
#1419=CARTESIAN_POINT('',(60.6267900806771,38.9182675512858,7.));
#1420=CARTESIAN_POINT('',(60.6267900806771,38.9182675512858,7.));
#1421=CARTESIAN_POINT('',(-60.3732099193022,38.9182675512858,7.));
#1422=CARTESIAN_POINT('',(-60.3732099193022,38.9182675512858,7.));
#1423=CARTESIAN_POINT('',(-60.3732099193022,-39.0817324487142,7.));
#1424=CARTESIAN_POINT('Origin',(60.6267900806976,38.9182675512858,3.));
#1425=CARTESIAN_POINT('',(-60.3732099193022,38.9182675512858,3.));
#1426=CARTESIAN_POINT('',(60.6267900806976,38.9182675512858,3.));
#1427=CARTESIAN_POINT('',(-60.3732099193022,38.9182675512858,3.));
#1428=CARTESIAN_POINT('',(-60.3732099193022,38.9182675512858,3.));
#1429=CARTESIAN_POINT('',(60.6267900806976,38.9182675512858,3.));
#1430=CARTESIAN_POINT('Origin',(60.6267900806771,-39.0817324487142,3.));
#1431=CARTESIAN_POINT('',(60.6267900806771,-39.0817324487142,3.));
#1432=CARTESIAN_POINT('',(60.6267900806771,38.9182675512858,3.));
#1433=CARTESIAN_POINT('',(60.6267900806771,-39.0817324487142,3.));
#1434=CARTESIAN_POINT('Origin',(-60.3732099192694,-39.0817324487142,3.));
#1435=CARTESIAN_POINT('',(-60.3732099192694,-39.0817324487142,3.));
#1436=CARTESIAN_POINT('',(60.6267900806771,-39.0817324487142,3.));
#1437=CARTESIAN_POINT('',(-60.3732099192694,-39.0817324487142,3.));
#1438=CARTESIAN_POINT('Origin',(-60.3732099193229,38.9182675512858,3.));
#1439=CARTESIAN_POINT('',(-60.3732099192663,-43.5817324487872,3.));
#1440=CARTESIAN_POINT('Origin',(0.126790080687336,-0.0817324487141979,6.));
#1441=CARTESIAN_POINT('Origin',(0.126790080687336,-0.0817324487141979,3.));
#1442=CARTESIAN_POINT('Origin',(-54.3732099193022,35.9182675512858,6.));
#1443=CARTESIAN_POINT('',(-54.3732099193022,-32.0817324487142,6.));
#1444=CARTESIAN_POINT('',(-54.3732099193022,35.9182675512858,6.));
#1445=CARTESIAN_POINT('',(-54.3732099193022,-32.0817324487142,6.));
#1446=CARTESIAN_POINT('',(-54.3732099193022,-32.0817324487142,7.));
#1447=CARTESIAN_POINT('',(-54.3732099193022,-32.0817324487142,6.));
#1448=CARTESIAN_POINT('',(-54.3732099193022,35.9182675512858,7.));
#1449=CARTESIAN_POINT('',(-54.3732099193022,-32.0817324487142,7.));
#1450=CARTESIAN_POINT('',(-54.3732099193022,35.9182675512858,6.));
#1451=CARTESIAN_POINT('Origin',(54.6267900806771,35.9182675512858,6.));
#1452=CARTESIAN_POINT('',(54.6267900806771,35.9182675512858,6.));
#1453=CARTESIAN_POINT('',(-54.3732099193022,35.9182675512858,6.));
#1454=CARTESIAN_POINT('',(54.6267900806771,35.9182675512858,7.));
#1455=CARTESIAN_POINT('',(-54.3732099193022,35.9182675512858,7.));
#1456=CARTESIAN_POINT('',(54.6267900806771,35.9182675512858,6.));
#1457=CARTESIAN_POINT('Origin',(54.6267900806771,-32.0817324487142,6.));
#1458=CARTESIAN_POINT('',(54.6267900806771,-32.0817324487142,6.));
#1459=CARTESIAN_POINT('',(54.6267900806771,35.9182675512858,6.));
#1460=CARTESIAN_POINT('',(54.6267900806771,-32.0817324487142,7.));
#1461=CARTESIAN_POINT('',(54.6267900806771,35.9182675512858,7.));
#1462=CARTESIAN_POINT('',(54.6267900806771,-32.0817324487142,6.));
#1463=CARTESIAN_POINT('Origin',(-54.3732099193022,-32.0817324487142,6.));
#1464=CARTESIAN_POINT('',(54.6267900806771,-32.0817324487142,6.));
#1465=CARTESIAN_POINT('',(54.6267900806771,-32.0817324487142,7.));
#1466=CARTESIAN_POINT('Origin',(0.12679008068746,1.9182675512858,7.));
#1467=CARTESIAN_POINT('Origin',(0.12679008068746,1.9182675512858,6.));
#1468=UNCERTAINTY_MEASURE_WITH_UNIT(LENGTH_MEASURE(0.01),#1472,
'DISTANCE_ACCURACY_VALUE',
'Maximum model space distance between geometric entities at asserted c
onnectivities');
#1469=UNCERTAINTY_MEASURE_WITH_UNIT(LENGTH_MEASURE(0.01),#1472,
'DISTANCE_ACCURACY_VALUE',
'Maximum model space distance between geometric entities at asserted c
onnectivities');
#1470=(
GEOMETRIC_REPRESENTATION_CONTEXT(3)
GLOBAL_UNCERTAINTY_ASSIGNED_CONTEXT((#1468))
GLOBAL_UNIT_ASSIGNED_CONTEXT((#1472,#1474,#1475))
REPRESENTATION_CONTEXT('','3D')
);
#1471=(
GEOMETRIC_REPRESENTATION_CONTEXT(3)
GLOBAL_UNCERTAINTY_ASSIGNED_CONTEXT((#1469))
GLOBAL_UNIT_ASSIGNED_CONTEXT((#1472,#1474,#1475))
REPRESENTATION_CONTEXT('','3D')
);
#1472=(
LENGTH_UNIT()
NAMED_UNIT(*)
SI_UNIT(.MILLI.,.METRE.)
);
#1473=(
LENGTH_UNIT()
NAMED_UNIT(*)
SI_UNIT($,.METRE.)
);
#1474=(
NAMED_UNIT(*)
PLANE_ANGLE_UNIT()
SI_UNIT($,.RADIAN.)
);
#1475=(
NAMED_UNIT(*)
SI_UNIT($,.STERADIAN.)
SOLID_ANGLE_UNIT()
);
#1476=SHAPE_DEFINITION_REPRESENTATION(#1477,#1478);
#1477=PRODUCT_DEFINITION_SHAPE('',$,#1480);
#1478=SHAPE_REPRESENTATION('',(#916),#1470);
#1479=PRODUCT_DEFINITION_CONTEXT('part definition',#1484,'design');
#1480=PRODUCT_DEFINITION('5 inch LCD HDMI RIGHT SIDE',
'5 inch LCD HDMI RIGHT SIDE v8',#1481,#1479);
#1481=PRODUCT_DEFINITION_FORMATION('',$,#1486);
#1482=PRODUCT_RELATED_PRODUCT_CATEGORY('5 inch LCD HDMI RIGHT SIDE v8',
'5 inch LCD HDMI RIGHT SIDE v8',(#1486));
#1483=APPLICATION_PROTOCOL_DEFINITION('international standard',
'automotive_design',2009,#1484);
#1484=APPLICATION_CONTEXT(
'Core Data for Automotive Mechanical Design Process');
#1485=PRODUCT_CONTEXT('part definition',#1484,'mechanical');
#1486=PRODUCT('5 inch LCD HDMI RIGHT SIDE',
'5 inch LCD HDMI RIGHT SIDE v8',$,(#1485));
#1487=PRESENTATION_STYLE_ASSIGNMENT((#1493));
#1488=PRESENTATION_STYLE_ASSIGNMENT((#1494));
#1489=PRESENTATION_STYLE_ASSIGNMENT((#1495));
#1490=PRESENTATION_STYLE_ASSIGNMENT((#1496));
#1491=PRESENTATION_STYLE_ASSIGNMENT((#1497));
#1492=PRESENTATION_STYLE_ASSIGNMENT((#1498));
#1493=SURFACE_STYLE_USAGE(.BOTH.,#1499);
#1494=SURFACE_STYLE_USAGE(.BOTH.,#1500);
#1495=SURFACE_STYLE_USAGE(.BOTH.,#1501);
#1496=SURFACE_STYLE_USAGE(.BOTH.,#1502);
#1497=SURFACE_STYLE_USAGE(.BOTH.,#1503);
#1498=SURFACE_STYLE_USAGE(.BOTH.,#1504);
#1499=SURFACE_SIDE_STYLE('',(#1505));
#1500=SURFACE_SIDE_STYLE('',(#1506));
#1501=SURFACE_SIDE_STYLE('',(#1507));
#1502=SURFACE_SIDE_STYLE('',(#1508));
#1503=SURFACE_SIDE_STYLE('',(#1509));
#1504=SURFACE_SIDE_STYLE('',(#1510));
#1505=SURFACE_STYLE_FILL_AREA(#1511);
#1506=SURFACE_STYLE_FILL_AREA(#1512);
#1507=SURFACE_STYLE_FILL_AREA(#1513);
#1508=SURFACE_STYLE_FILL_AREA(#1514);
#1509=SURFACE_STYLE_FILL_AREA(#1515);
#1510=SURFACE_STYLE_FILL_AREA(#1516);
#1511=FILL_AREA_STYLE('Steel - Satin',(#1517));
#1512=FILL_AREA_STYLE('Plastic - Translucent Matte (Blue)',(#1518));
#1513=FILL_AREA_STYLE('Rubber - Weathered',(#1519));
#1514=FILL_AREA_STYLE('Iron - Cast',(#1520));
#1515=FILL_AREA_STYLE('Glass - Heavy Color (1)',(#1521));
#1516=FILL_AREA_STYLE('Glass - Heavy Color (Blue)',(#1522));
#1517=FILL_AREA_STYLE_COLOUR('Steel - Satin',#1523);
#1518=FILL_AREA_STYLE_COLOUR('Plastic - Translucent Matte (Blue)',#1524);
#1519=FILL_AREA_STYLE_COLOUR('Rubber - Weathered',#1525);
#1520=FILL_AREA_STYLE_COLOUR('Iron - Cast',#1526);
#1521=FILL_AREA_STYLE_COLOUR('Glass - Heavy Color (1)',#1527);
#1522=FILL_AREA_STYLE_COLOUR('Glass - Heavy Color (Blue)',#1528);
#1523=COLOUR_RGB('Steel - Satin',0.627450980392157,0.627450980392157,0.627450980392157);
#1524=COLOUR_RGB('Plastic - Translucent Matte (Blue)',0.105882352941176,
0.325490196078431,0.4);
#1525=COLOUR_RGB('Rubber - Weathered',0.152941176470588,0.152941176470588,
0.152941176470588);
#1526=COLOUR_RGB('Iron - Cast',0.749019607843137,0.741176470588235,0.733333333333333);
#1527=COLOUR_RGB('Glass - Heavy Color (1)',0.,0.,0.);
#1528=COLOUR_RGB('Glass - Heavy Color (Blue)',0.517647058823529,0.505882352941176,
0.498039215686275);
ENDSEC;
END-ISO-10303-21;
